#N canvas 222 44 881 650 10;
#X obj 286 66 metroguy;
#X obj 286 174 sequencerguy;
#X obj 288 344 adsrguy;
#X obj 288 447 vcfguy;
#X obj 289 559 output~;
#X obj 287 237 waveguy;
#X obj 416 341 samplerguy 1;
#X obj 415 435 vcfguy;
#X obj 416 552 output~;
#X connect 0 0 1 0;
#X connect 1 0 5 1;
#X connect 2 0 3 0;
#X connect 3 0 4 0;
#X connect 3 0 4 1;
#X connect 5 0 2 0;
#X connect 5 1 2 1;
#X connect 6 0 7 0;
#X connect 7 0 8 0;
#X connect 7 0 8 1;
