#N canvas 218 173 622 692 10;
#X obj 103 103 cnv 15 74 94 empty empty LFO 4 8 0 12 -231936 -13381
0;
#X floatatom 139 126 5 0 0 0 freq - -;
#X obj 147 181 hradio 12 1 0 2 empty empty bypass -38 8 0 10 -228856
-1 -1 0;
#X obj 125 9 loadbang;
#X obj 393 30 inlet;
#X obj 380 571 outlet;
#X obj 58 190 bang;
#X obj 390 332 *~ 0.5;
#X floatatom 394 432 5 0 0 0 - - -;
#X obj 388 223 * 0.005;
#X obj 386 293 +~ 1;
#X obj 107 118 cnv 1 6 3 empty \$0-display empty 20 12 0 14 -232576
-66577 0;
#X obj 392 533 s \$0-display;
#X obj 389 470 * 66;
#X obj 170 508 spigot;
#X obj 70 549 outlet;
#X msg 494 516 size 15;
#X msg 560 519 size 1;
#X floatatom 139 144 5 0 0 0 plus - -;
#X obj 236 476 +;
#X floatatom 139 162 5 0 0 0 multi - -;
#X msg 390 506 vis_size \$1 3;
#X obj 254 106 unpack f f f f;
#X obj 60 241 pack f f f f;
#X obj 276 447 *;
#X obj 42 97 inlet;
#X obj 384 119 sel 0 1;
#X obj 410 151 bng 15 250 50 0 empty empty empty 17 7 0 10 -262144
-1 -1;
#X obj 384 151 bng 15 250 50 0 empty empty empty 17 7 0 10 -262144
-1 -1;
#X msg 389 196 0;
#X obj 41 12 initbang;
#X obj 389 262 osc~;
#X obj 391 407 snapshot~;
#X msg 124 53 250 -0.25 0.5 0;
#X obj 408 371 metro 25;
#X msg 110 445 0;
#X connect 1 0 9 0;
#X connect 1 0 23 0;
#X connect 2 0 6 0;
#X connect 2 0 14 1;
#X connect 2 0 23 3;
#X connect 2 0 26 0;
#X connect 2 0 34 0;
#X connect 3 0 33 0;
#X connect 4 0 22 0;
#X connect 6 0 23 0;
#X connect 7 0 32 0;
#X connect 8 0 13 0;
#X connect 8 0 24 0;
#X connect 9 0 31 0;
#X connect 10 0 7 0;
#X connect 13 0 21 0;
#X connect 14 0 15 0;
#X connect 16 0 12 0;
#X connect 17 0 12 0;
#X connect 18 0 19 1;
#X connect 18 0 6 0;
#X connect 18 0 23 1;
#X connect 19 0 14 0;
#X connect 20 0 6 0;
#X connect 20 0 23 2;
#X connect 20 0 24 1;
#X connect 21 0 12 0;
#X connect 22 0 1 0;
#X connect 22 1 18 0;
#X connect 22 2 20 0;
#X connect 22 3 2 0;
#X connect 23 0 5 0;
#X connect 24 0 19 0;
#X connect 25 0 18 0;
#X connect 26 0 28 0;
#X connect 26 0 35 0;
#X connect 26 1 27 0;
#X connect 27 0 1 0;
#X connect 28 0 29 0;
#X connect 29 0 9 0;
#X connect 30 0 33 0;
#X connect 31 0 10 0;
#X connect 32 0 8 0;
#X connect 33 0 22 0;
#X connect 34 0 32 0;
#X connect 35 0 15 0;
#X coords 0 -1 1 1 80 100 2 100 100;
