#N canvas 160 161 979 692 10;
#X obj 103 103 cnv 15 160 94 empty \$0-timerlabel Timer/counter 100
4 10 0 12 -897 -262144 0;
#X obj 227 45 loadbang;
#X obj 522 4 inlet;
#X obj 721 348 outlet;
#X obj 210 26 initbang;
#N canvas 605 509 450 300 bang-all-inlets 0;
#X obj 54 32 inlet;
#X obj 54 238 outlet;
#X obj 98 32 inlet;
#X obj 98 238 outlet;
#X obj 142 32 inlet;
#X obj 142 238 outlet;
#X obj 186 32 inlet;
#X obj 186 238 outlet;
#X obj 230 32 inlet;
#X obj 230 238 outlet;
#X obj 196 112 bang;
#X obj 196 137 delay;
#X connect 0 0 1 0;
#X connect 2 0 3 0;
#X connect 2 0 10 0;
#X connect 4 0 5 0;
#X connect 4 0 10 0;
#X connect 6 0 7 0;
#X connect 6 0 10 0;
#X connect 8 0 9 0;
#X connect 8 0 10 0;
#X connect 10 0 11 0;
#X connect 11 0 1 0;
#X restore 627 266 pd bang-all-inlets;
#X obj 119 176 bng 15 50 25 0 empty empty empty 17 7 0 10 -897 -257985
-1;
#X obj 172 507 outlet;
#X obj 119 124 tgl 15 0 \$0-nothing-at-all \$0-state empty 17 7 0 10
-258699 -258699 -258699 0 1;
#X obj -9 333 float;
#X obj 36 332 + 1;
#X msg 66 330 0;
#X msg -30 262 stop;
#X obj -10 305 metro 100;
#X obj 22 383 sel;
#X obj 198 141 nbx 5 14 1 1e+037 0 0 empty empty interval -50 8 0 10
-204786 -1 -191407 100 256;
#X obj 184 282 sel 0 1;
#X obj 184 337 s \$0-state;
#X obj 203 394 s \$0-state;
#X msg 184 311 color 13 13 13;
#X msg 203 367 color 16 16 16;
#X obj 198 159 nbx 5 14 0 1e+037 0 0 empty empty count-to -50 8 0 10
-204786 -1 -191407 100 256;
#X obj 198 177 nbx 5 14 -1e+037 1e+037 0 0 empty empty offset -50 8
0 10 -204786 -1 -191407 0 256;
#X obj 431 275 nbx 5 14 -1e+037 1e+037 0 0 empty empty output -50 8
0 10 -204786 -1 -191407 0 256;
#X obj 293 230 +;
#X obj 338 285 sel 0 1;
#X obj 119 150 tgl 15 0 \$0-nothing-at-all \$0-cont-state C 3 8 0 12
-24198 -24198 -1 0 1;
#X msg 357 320 color 13 13 22;
#X msg 283 442 color 16 16 22;
#X obj -30 225 spigot;
#X obj 293 64 unpack f f f f f;
#X obj 632 300 pack f f f f f;
#X msg 293 23 0 0 100 100 0;
#X obj 24 513 outlet;
#X obj -52 1 inlet;
#X obj 12 148 t b b;
#X obj 14 10 route bang;
#X obj 198 122 nbx 5 14 1 1e+037 0 0 empty empty bpm -50 8 0 10 -204786
-1 -191407 600 256;
#X msg 353 108 60000 \$1;
#X obj 353 135 /;
#X msg 428 124 60000 \$1;
#X obj 428 148 /;
#X msg 427 173 set \$1;
#X obj 466 407 ftos;
#X symbolatom 474 447 10 0 0 0 - - -;
#X obj 416 553 pack \$0 s;
#X obj 413 526 bang;
#X msg 420 586 \; \$1-timerlabel label Timer/counter \$2;
#X msg 190 60 100;
#X obj 72 61 route cont;
#X msg 136 4 cont 0;
#X msg 137 26 cont 1;
#X obj 283 469 s \$0-cont-state;
#X obj 360 391 s \$0-cont-state;
#X msg 388 355 nonzero 1;
#X connect 1 0 32 0;
#X connect 1 0 48 0;
#X connect 2 0 30 0;
#X connect 4 0 32 0;
#X connect 4 0 48 0;
#X connect 5 0 31 0;
#X connect 5 1 31 1;
#X connect 5 2 31 2;
#X connect 5 3 31 3;
#X connect 5 4 31 4;
#X connect 6 0 7 0;
#X connect 6 0 29 0;
#X connect 8 0 11 0;
#X connect 8 0 13 0;
#X connect 8 0 16 0;
#X connect 8 0 5 0;
#X connect 9 0 10 0;
#X connect 9 0 14 0;
#X connect 9 0 24 0;
#X connect 10 0 9 1;
#X connect 11 0 9 1;
#X connect 12 0 13 0;
#X connect 13 0 9 0;
#X connect 14 0 11 0;
#X connect 14 0 6 0;
#X connect 15 0 13 1;
#X connect 15 0 5 2;
#X connect 15 0 40 0;
#X connect 16 0 19 0;
#X connect 16 1 20 0;
#X connect 19 0 17 0;
#X connect 20 0 18 0;
#X connect 21 0 14 1;
#X connect 21 0 5 3;
#X connect 22 0 24 1;
#X connect 22 0 5 4;
#X connect 23 0 33 0;
#X connect 23 0 43 0;
#X connect 24 0 23 0;
#X connect 25 0 28 0;
#X connect 25 0 54 0;
#X connect 25 1 27 0;
#X connect 26 0 25 0;
#X connect 26 0 29 1;
#X connect 26 0 5 1;
#X connect 27 0 53 0;
#X connect 28 0 52 0;
#X connect 29 0 12 0;
#X connect 30 0 8 0;
#X connect 30 1 26 0;
#X connect 30 2 15 0;
#X connect 30 2 40 0;
#X connect 30 3 21 0;
#X connect 30 4 22 0;
#X connect 31 0 3 0;
#X connect 32 0 30 0;
#X connect 34 0 36 0;
#X connect 35 0 13 0;
#X connect 35 1 11 0;
#X connect 36 0 35 0;
#X connect 36 1 49 0;
#X connect 37 0 38 0;
#X connect 38 0 39 0;
#X connect 39 0 15 0;
#X connect 40 0 41 0;
#X connect 41 0 42 0;
#X connect 42 0 37 0;
#X connect 43 0 44 0;
#X connect 44 0 45 1;
#X connect 44 0 46 0;
#X connect 45 0 47 0;
#X connect 46 0 45 0;
#X connect 48 0 15 0;
#X connect 49 0 26 0;
#X connect 49 1 8 0;
#X connect 50 0 49 0;
#X connect 51 0 49 0;
#X connect 54 0 53 0;
#X coords 0 -1 1 1 166 100 2 100 100;
