#N canvas 619 2 566 670 10;
#X obj 101 100 cnv 15 100 80 empty empty empty 20 12 0 14 -233017 -66577
0;
#N canvas 0 0 450 300 (subpatch) 0;
#X array \$0-table 171926 float 2;
#X coords 0 1 171926 -1 100 30 2 0 0;
#X restore 100 150 graph;
#X obj 270 115 openpanel;
#X obj 184 115 bng 15 250 50 0 empty empty load -7 -6 0 10 -260097
-1 -1;
#X obj 270 186 soundfiler;
#X obj 270 213 expr 44100 / $f1;
#X obj 271 320 phasor~;
#X obj 271 347 *~;
#X obj 270 253 f;
#X obj 163 204 sel 1;
#X obj 102 120 tgl 15 0 empty empty On/Off 17 8 0 10 -4034 -1 -1 0
1;
#X obj 271 281 * 1;
#X obj 298 255 t b f;
#X obj 270 393 *~;
#X msg 163 229 1;
#X obj 158 133 hsl 40 15 0.01 4 0 0 empty empty speed 6 7 0 10 -260097
-1 -1 968 1;
#X obj 270 449 outlet~;
#X obj 102 65 inlet;
#X obj 155 66 inlet;
#X obj 271 419 tabread4~ \$0-table;
#X obj 270 137 pack s \$0;
#X msg 270 164 read -resize \$1 \$2-table;
#X obj 199 33 initbang;
#X obj 256 33 loadbang;
#X msg 199 58 1;
#X connect 2 0 20 0;
#X connect 3 0 2 0;
#X connect 4 0 5 0;
#X connect 4 0 7 1;
#X connect 5 0 8 1;
#X connect 6 0 7 0;
#X connect 7 0 13 0;
#X connect 8 0 11 0;
#X connect 9 0 14 0;
#X connect 9 0 8 0;
#X connect 9 1 13 1;
#X connect 10 0 9 0;
#X connect 11 0 6 0;
#X connect 12 0 11 0;
#X connect 12 1 11 1;
#X connect 13 0 19 0;
#X connect 14 0 6 1;
#X connect 14 0 13 1;
#X connect 15 0 12 0;
#X connect 17 0 10 0;
#X connect 18 0 15 0;
#X connect 19 0 16 0;
#X connect 20 0 21 0;
#X connect 21 0 4 0;
#X connect 22 0 24 0;
#X connect 23 0 24 0;
#X connect 24 0 15 0;
#X coords 0 -1 1 1 102 80 1 100 100;
