#N canvas 295 416 631 518 10;
#X floatatom 340 369 5 0 0 0 - - -;
#X msg 310 456 \; \$1-colour-\$2 color \$3 \$3 \$3;
#X obj 310 420 pack \$0 f f;
#X floatatom 3 144 5 0 0 0 - - -;
#X msg 78 403 \; \$1-colour-\$2 color \$3 \$3 \$3;
#X obj 78 367 pack \$0 f f;
#X msg 141 336 13;
#X msg 373 389 3;
#X obj 3 93 inlet;
#X obj 293 264 until;
#X obj 293 290 f;
#X obj 323 290 + 1;
#X obj 306 207 t b b;
#X obj 21 471 outlet;
#X msg 45 70 vis 1;
#X obj 334 44 loadbang;
#X obj 343 69 initbang;
#X msg 317 110 1;
#X obj 0 0 cnv 15 276 50 empty empty empty 4 8 0 12 -1 -1 0;
#X obj 1 1 cnv 15 274 48 empty empty Sequence 110 7 0 12 -159808 -262144
0;
#X obj 20 16 tgl 15 0 \$0-no-out \$0-colour-1 empty 17 7 0 10 -261689
-261689 -261689 0 1;
#X obj 37 16 tgl 15 0 \$0-no-out \$0-colour-2 empty 17 7 0 10 -261689
-261689 -261689 0 1;
#X obj 54 16 tgl 15 0 \$0-no-out \$0-colour-3 empty 17 7 0 10 -261689
-261689 -261689 0 1;
#X obj 71 16 tgl 15 0 \$0-no-out \$0-colour-4 empty 17 7 0 10 -261689
-261689 -261689 0 1;
#X obj 88 16 tgl 15 0 \$0-no-out \$0-colour-5 empty 17 7 0 10 -261689
-261689 -261689 0 1;
#X obj 105 16 tgl 15 0 \$0-no-out \$0-colour-6 empty 17 7 0 10 -261689
-261689 -261689 0 1;
#X obj 122 16 tgl 15 0 \$0-no-out \$0-colour-7 empty 17 7 0 10 -261689
-261689 -261689 0 1;
#X obj 139 16 tgl 15 0 \$0-no-out \$0-colour-8 empty 17 7 0 10 -261689
-261689 -261689 0 1;
#X obj 156 16 tgl 15 0 \$0-no-out \$0-colour-9 empty 17 7 0 10 -261689
-261689 -261689 0 1;
#X obj 173 16 tgl 15 0 \$0-no-out \$0-colour-10 empty 17 7 0 10 -261689
-261689 -261689 0 1;
#X obj 190 16 tgl 15 0 \$0-no-out \$0-colour-11 empty 17 7 0 10 -258699
-258699 -258699 0 1;
#X obj 207 16 tgl 15 0 \$0-no-out \$0-colour-12 empty 17 7 0 10 -261689
-261689 -261689 0 1;
#X obj 224 16 tgl 15 0 \$0-no-out \$0-colour-13 empty 17 7 0 10 -261689
-261689 -261689 0 1;
#X obj 241 16 tgl 15 0 \$0-no-out \$0-colour-14 empty 17 7 0 10 -261689
-261689 -261689 0 1;
#X obj 258 16 tgl 15 0 \$0-no-out \$0-colour-15 empty 17 7 0 10 -261689
-261689 -261689 0 1;
#X obj 3 16 tgl 15 0 \$0-no-out \$0-colour-0 empty 17 7 0 10 -261689
-261689 -261689 0 1;
#X obj 207 33 bng 15 250 50 0 empty empty tables 17 7 0 10 -159808
-257985 -262144;
#X obj 207 61 bng 15 250 50 0 empty empty table-2 17 7 0 10 -159808
-257985 -262144;
#X obj 207 76 cnv 1 15 1 empty empty empty 20 12 0 14 -159808 -66577
0;
#X obj 222 61 cnv 1 1 15 empty empty empty 20 12 0 14 -159808 -66577
0;
#X obj 207 61 cnv 1 5 1 empty empty empty 20 12 0 14 -159808 -66577
0;
#X obj 206 61 cnv 1 1 15 empty empty empty 20 12 0 14 -159808 -66577
0;
#X obj 217 61 cnv 1 5 1 empty empty empty 20 12 0 14 -159808 -66577
0;
#X obj 207 75 cnv 1 5 1 empty empty empty 20 12 0 14 -159808 -66577
0;
#X obj 217 75 cnv 1 5 1 empty empty empty 20 12 0 14 -159808 -66577
0;
#X obj 207 60 cnv 1 15 1 empty empty empty 20 12 0 14 -159808 -66577
0;
#X obj 207 48 cnv 1 15 1 empty empty empty 20 12 0 14 -159808 -66577
0;
#X obj 222 33 cnv 1 1 15 empty empty empty 20 12 0 14 -159808 -66577
0;
#X obj 207 33 cnv 1 5 1 empty empty empty 20 12 0 14 -159808 -66577
0;
#X obj 206 33 cnv 1 1 15 empty empty empty 20 12 0 14 -159808 -66577
0;
#X obj 217 33 cnv 1 5 1 empty empty empty 20 12 0 14 -159808 -66577
0;
#X obj 207 47 cnv 1 5 1 empty empty empty 20 12 0 14 -159808 -66577
0;
#X obj 217 47 cnv 1 5 1 empty empty empty 20 12 0 14 -159808 -66577
0;
#X obj 207 32 cnv 1 15 1 empty empty empty 20 12 0 14 -159808 -66577
0;
#X obj 1 47 cnv 3 8 3 empty empty empty 20 12 0 14 -1 -66577 0;
#X obj 2 48 cnv 1 6 1 empty empty empty 20 12 0 14 -262144 -66577 0
;
#X obj 0 0 cnv 3 8 3 empty empty empty 20 12 0 14 -1 -66577 0;
#X obj 1 1 cnv 1 6 1 empty empty empty 20 12 0 14 -262144 -66577 0
;
#X obj 45 94 s pd-\$0-tables;
#N canvas 694 521 543 98 \$0-tables 0;
#N canvas 148 89 1180 754 table-pair 0;
#X floatatom 405 254 4 0 127 0 - - -;
#X floatatom 436 254 4 0 127 0 - - -;
#X floatatom 467 254 4 0 127 0 - - -;
#X floatatom 498 254 4 0 127 0 - - -;
#X floatatom 529 254 4 0 127 0 - - -;
#X floatatom 560 254 4 0 127 0 - - -;
#X floatatom 591 254 4 0 127 0 - - -;
#X floatatom 622 254 4 0 127 0 - - -;
#X floatatom 653 254 4 0 127 0 - - -;
#X floatatom 684 254 4 0 127 0 - - -;
#X floatatom 715 254 4 0 127 0 - - -;
#X floatatom 746 254 4 0 127 0 - - -;
#X floatatom 777 254 4 0 127 0 - - -;
#X floatatom 808 254 4 0 127 0 - - -;
#X floatatom 839 254 4 0 127 0 - - -;
#X floatatom 870 254 4 0 127 0 - - -;
#X obj 1023 626 outlet;
#N canvas 242 408 807 300 bang-all-inlets 0;
#X obj 54 32 inlet;
#X obj 54 238 outlet;
#X obj 98 32 inlet;
#X obj 98 238 outlet;
#X obj 142 32 inlet;
#X obj 142 238 outlet;
#X obj 186 32 inlet;
#X obj 186 238 outlet;
#X obj 230 32 inlet;
#X obj 230 238 outlet;
#X obj 196 112 bang;
#X obj 196 137 delay;
#X obj 274 32 inlet;
#X obj 274 238 outlet;
#X obj 318 32 inlet;
#X obj 318 238 outlet;
#X obj 362 32 inlet;
#X obj 362 238 outlet;
#X obj 409 31 inlet;
#X obj 409 237 outlet;
#X obj 453 31 inlet;
#X obj 453 237 outlet;
#X obj 497 31 inlet;
#X obj 497 237 outlet;
#X obj 541 31 inlet;
#X obj 541 237 outlet;
#X obj 585 31 inlet;
#X obj 585 237 outlet;
#X obj 629 31 inlet;
#X obj 629 237 outlet;
#X obj 673 31 inlet;
#X obj 673 237 outlet;
#X obj 717 31 inlet;
#X obj 717 237 outlet;
#X connect 0 0 1 0;
#X connect 2 0 3 0;
#X connect 2 0 10 0;
#X connect 4 0 5 0;
#X connect 4 0 10 0;
#X connect 6 0 7 0;
#X connect 6 0 10 0;
#X connect 8 0 9 0;
#X connect 8 0 10 0;
#X connect 10 0 11 0;
#X connect 11 0 1 0;
#X connect 12 0 13 0;
#X connect 12 0 10 0;
#X connect 14 0 15 0;
#X connect 14 0 10 0;
#X connect 16 0 17 0;
#X connect 16 0 10 0;
#X connect 18 0 19 0;
#X connect 18 0 10 0;
#X connect 20 0 21 0;
#X connect 20 0 10 0;
#X connect 22 0 23 0;
#X connect 22 0 10 0;
#X connect 24 0 25 0;
#X connect 24 0 10 0;
#X connect 26 0 27 0;
#X connect 26 0 10 0;
#X connect 28 0 29 0;
#X connect 28 0 10 0;
#X connect 30 0 31 0;
#X connect 30 0 10 0;
#X connect 32 0 33 0;
#X connect 32 0 10 0;
#X restore 415 357 pd bang-all-inlets -----------------;
#N canvas 240 406 1063 300 bang-all-inlets 0;
#X obj 54 32 inlet;
#X obj 54 238 outlet;
#X obj 98 32 inlet;
#X obj 98 238 outlet;
#X obj 142 32 inlet;
#X obj 142 238 outlet;
#X obj 186 32 inlet;
#X obj 186 238 outlet;
#X obj 230 32 inlet;
#X obj 230 238 outlet;
#X obj 196 112 bang;
#X obj 196 137 delay;
#X obj 274 32 inlet;
#X obj 274 238 outlet;
#X obj 318 32 inlet;
#X obj 318 238 outlet;
#X obj 362 32 inlet;
#X obj 362 238 outlet;
#X obj 409 31 inlet;
#X obj 409 237 outlet;
#X obj 453 31 inlet;
#X obj 453 237 outlet;
#X obj 497 31 inlet;
#X obj 497 237 outlet;
#X obj 541 31 inlet;
#X obj 541 237 outlet;
#X obj 585 31 inlet;
#X obj 585 237 outlet;
#X obj 629 31 inlet;
#X obj 629 237 outlet;
#X obj 673 31 inlet;
#X obj 673 237 outlet;
#X obj 717 31 inlet;
#X obj 717 237 outlet;
#X connect 0 0 1 0;
#X connect 2 0 3 0;
#X connect 2 0 10 0;
#X connect 4 0 5 0;
#X connect 4 0 10 0;
#X connect 6 0 7 0;
#X connect 6 0 10 0;
#X connect 8 0 9 0;
#X connect 8 0 10 0;
#X connect 10 0 11 0;
#X connect 11 0 1 0;
#X connect 12 0 13 0;
#X connect 12 0 10 0;
#X connect 14 0 15 0;
#X connect 14 0 10 0;
#X connect 16 0 17 0;
#X connect 16 0 10 0;
#X connect 18 0 19 0;
#X connect 18 0 10 0;
#X connect 20 0 21 0;
#X connect 20 0 10 0;
#X connect 22 0 23 0;
#X connect 22 0 10 0;
#X connect 24 0 25 0;
#X connect 24 0 10 0;
#X connect 26 0 27 0;
#X connect 26 0 10 0;
#X connect 28 0 29 0;
#X connect 28 0 10 0;
#X connect 30 0 31 0;
#X connect 30 0 10 0;
#X connect 32 0 33 0;
#X connect 32 0 10 0;
#X restore 389 153 pd bang-all-inlets -------------------;
#X obj 459 484 pack f f f f f f f f f f f f f f f f f f f f f f f f
f f f f f f f f;
#X obj 466 49 unpack f f f f f f f f f f f f f f f f f f f f f f f
f f f f f f f f f;
#X floatatom 405 272 4 0 127 0 - - -;
#X floatatom 436 273 4 0 127 0 - - -;
#X floatatom 467 272 4 0 127 0 - - -;
#X floatatom 498 272 4 0 127 0 - - -;
#X floatatom 529 272 4 0 127 0 - - -;
#X floatatom 560 272 4 0 127 0 - - -;
#X floatatom 591 272 4 0 127 0 - - -;
#X floatatom 622 272 4 0 127 0 - - -;
#X floatatom 653 272 4 0 127 0 - - -;
#X floatatom 684 272 4 0 127 0 - - -;
#X floatatom 715 272 4 0 127 0 - - -;
#X floatatom 746 272 4 0 127 0 - - -;
#X floatatom 777 272 4 0 127 0 - - -;
#X floatatom 808 272 4 0 127 0 - - -;
#X floatatom 839 272 4 0 127 0 - - -;
#X floatatom 870 272 4 0 127 0 - - -;
#N canvas 240 406 1063 300 bang-all-inlets 0;
#X obj 54 32 inlet;
#X obj 54 238 outlet;
#X obj 98 32 inlet;
#X obj 98 238 outlet;
#X obj 142 32 inlet;
#X obj 142 238 outlet;
#X obj 186 32 inlet;
#X obj 186 238 outlet;
#X obj 230 32 inlet;
#X obj 230 238 outlet;
#X obj 210 113 bang;
#X obj 196 137 delay;
#X obj 274 32 inlet;
#X obj 274 238 outlet;
#X obj 318 32 inlet;
#X obj 318 238 outlet;
#X obj 362 32 inlet;
#X obj 362 238 outlet;
#X obj 409 31 inlet;
#X obj 409 237 outlet;
#X obj 453 31 inlet;
#X obj 453 237 outlet;
#X obj 497 31 inlet;
#X obj 497 237 outlet;
#X obj 541 31 inlet;
#X obj 541 237 outlet;
#X obj 585 31 inlet;
#X obj 585 237 outlet;
#X obj 629 31 inlet;
#X obj 629 237 outlet;
#X obj 673 31 inlet;
#X obj 673 237 outlet;
#X obj 717 31 inlet;
#X obj 717 237 outlet;
#X connect 0 0 1 0;
#X connect 2 0 3 0;
#X connect 2 0 10 0;
#X connect 4 0 5 0;
#X connect 4 0 10 0;
#X connect 6 0 7 0;
#X connect 6 0 10 0;
#X connect 8 0 9 0;
#X connect 8 0 10 0;
#X connect 10 0 11 0;
#X connect 11 0 1 0;
#X connect 12 0 13 0;
#X connect 12 0 10 0;
#X connect 14 0 15 0;
#X connect 14 0 10 0;
#X connect 16 0 17 0;
#X connect 16 0 10 0;
#X connect 18 0 19 0;
#X connect 18 0 10 0;
#X connect 20 0 21 0;
#X connect 20 0 10 0;
#X connect 22 0 23 0;
#X connect 22 0 10 0;
#X connect 24 0 25 0;
#X connect 24 0 10 0;
#X connect 26 0 27 0;
#X connect 26 0 10 0;
#X connect 28 0 29 0;
#X connect 28 0 10 0;
#X connect 30 0 31 0;
#X connect 30 0 10 0;
#X connect 32 0 33 0;
#X connect 32 0 10 0;
#X restore 625 153 pd bang-all-inlets -------------------;
#X obj 982 -68 inlet;
#X obj 31 -85 inlet;
#X obj 109 621 outlet;
#X obj 602 600 pack f f;
#X obj 361 26 t b b;
#X obj 397 26 t b b;
#X obj 433 26 t b b;
#X obj 470 26 t b b;
#X obj 507 26 t b b;
#X obj 544 26 t b b;
#X obj 581 26 t b b;
#X obj 618 26 t b b;
#X obj 655 26 t b b;
#X obj 692 26 t b b;
#X obj 729 26 t b b;
#X obj 767 26 t b b;
#X obj 804 26 t b b;
#X obj 842 26 t b b;
#X obj 879 26 t b b;
#X obj 916 26 t b b;
#X obj 494 -57 route 0 1 2 3 4 5 6 7 8 9 10 11 12 13 14 15;
#N canvas 275 267 807 300 bang-all-inlets 0;
#X obj 54 32 inlet;
#X obj 54 238 outlet;
#X obj 98 32 inlet;
#X obj 98 238 outlet;
#X obj 142 32 inlet;
#X obj 142 238 outlet;
#X obj 186 32 inlet;
#X obj 186 238 outlet;
#X obj 230 32 inlet;
#X obj 230 238 outlet;
#X obj 196 112 bang;
#X obj 196 137 delay;
#X obj 274 32 inlet;
#X obj 274 238 outlet;
#X obj 318 32 inlet;
#X obj 318 238 outlet;
#X obj 362 32 inlet;
#X obj 362 238 outlet;
#X obj 409 31 inlet;
#X obj 409 237 outlet;
#X obj 453 31 inlet;
#X obj 453 237 outlet;
#X obj 497 31 inlet;
#X obj 497 237 outlet;
#X obj 541 31 inlet;
#X obj 541 237 outlet;
#X obj 585 31 inlet;
#X obj 585 237 outlet;
#X obj 629 31 inlet;
#X obj 629 237 outlet;
#X obj 673 31 inlet;
#X obj 673 237 outlet;
#X obj 717 31 inlet;
#X obj 717 237 outlet;
#X obj 760 238 outlet;
#X connect 0 0 1 0;
#X connect 0 0 10 0;
#X connect 2 0 3 0;
#X connect 2 0 10 0;
#X connect 4 0 5 0;
#X connect 4 0 10 0;
#X connect 6 0 7 0;
#X connect 6 0 10 0;
#X connect 8 0 9 0;
#X connect 8 0 10 0;
#X connect 10 0 11 0;
#X connect 11 0 34 0;
#X connect 12 0 13 0;
#X connect 12 0 10 0;
#X connect 14 0 15 0;
#X connect 14 0 10 0;
#X connect 16 0 17 0;
#X connect 16 0 10 0;
#X connect 18 0 19 0;
#X connect 18 0 10 0;
#X connect 20 0 21 0;
#X connect 20 0 10 0;
#X connect 22 0 23 0;
#X connect 22 0 10 0;
#X connect 24 0 25 0;
#X connect 24 0 10 0;
#X connect 26 0 27 0;
#X connect 26 0 10 0;
#X connect 28 0 29 0;
#X connect 28 0 10 0;
#X connect 30 0 31 0;
#X connect 30 0 10 0;
#X connect 32 0 33 0;
#X connect 32 0 10 0;
#X restore 638 357 pd bang-all-inlets -----------------;
#X connect 0 0 17 0;
#X connect 0 0 41 0;
#X connect 1 0 17 1;
#X connect 1 0 41 0;
#X connect 2 0 17 2;
#X connect 2 0 41 0;
#X connect 3 0 17 3;
#X connect 3 0 41 0;
#X connect 4 0 17 4;
#X connect 4 0 41 0;
#X connect 5 0 17 5;
#X connect 5 0 41 0;
#X connect 6 0 17 6;
#X connect 6 0 41 0;
#X connect 7 0 17 7;
#X connect 7 0 41 0;
#X connect 8 0 17 8;
#X connect 8 0 41 0;
#X connect 9 0 17 9;
#X connect 9 0 41 0;
#X connect 10 0 17 10;
#X connect 10 0 41 0;
#X connect 11 0 17 11;
#X connect 11 0 41 0;
#X connect 12 0 17 12;
#X connect 12 0 41 0;
#X connect 13 0 17 13;
#X connect 13 0 41 0;
#X connect 14 0 17 14;
#X connect 14 0 41 0;
#X connect 15 0 17 15;
#X connect 15 0 41 0;
#X connect 17 0 19 0;
#X connect 17 1 19 1;
#X connect 17 2 19 2;
#X connect 17 3 19 3;
#X connect 17 4 19 4;
#X connect 17 5 19 5;
#X connect 17 6 19 6;
#X connect 17 7 19 7;
#X connect 17 8 19 8;
#X connect 17 9 19 9;
#X connect 17 10 19 10;
#X connect 17 11 19 11;
#X connect 17 12 19 12;
#X connect 17 13 19 13;
#X connect 17 14 19 14;
#X connect 17 15 19 15;
#X connect 18 0 0 0;
#X connect 18 1 1 0;
#X connect 18 2 2 0;
#X connect 18 3 3 0;
#X connect 18 4 4 0;
#X connect 18 5 5 0;
#X connect 18 6 6 0;
#X connect 18 7 7 0;
#X connect 18 8 8 0;
#X connect 18 9 9 0;
#X connect 18 10 10 0;
#X connect 18 11 11 0;
#X connect 18 12 12 0;
#X connect 18 13 13 0;
#X connect 18 14 14 0;
#X connect 18 15 15 0;
#X connect 19 0 16 0;
#X connect 20 0 18 0;
#X connect 20 1 18 1;
#X connect 20 2 18 2;
#X connect 20 3 18 3;
#X connect 20 4 18 4;
#X connect 20 5 18 5;
#X connect 20 6 18 6;
#X connect 20 7 18 7;
#X connect 20 8 18 8;
#X connect 20 9 18 9;
#X connect 20 10 18 10;
#X connect 20 11 18 11;
#X connect 20 12 18 12;
#X connect 20 13 18 13;
#X connect 20 14 18 14;
#X connect 20 15 18 15;
#X connect 20 16 37 0;
#X connect 20 17 37 1;
#X connect 20 18 37 2;
#X connect 20 19 37 3;
#X connect 20 20 37 4;
#X connect 20 21 37 5;
#X connect 20 22 37 6;
#X connect 20 23 37 7;
#X connect 20 24 37 8;
#X connect 20 25 37 9;
#X connect 20 26 37 10;
#X connect 20 27 37 11;
#X connect 20 28 37 12;
#X connect 20 29 37 13;
#X connect 20 30 37 14;
#X connect 20 31 37 15;
#X connect 21 0 41 1;
#X connect 21 0 59 0;
#X connect 22 0 41 1;
#X connect 22 0 59 1;
#X connect 23 0 41 1;
#X connect 23 0 59 2;
#X connect 24 0 41 1;
#X connect 24 0 59 3;
#X connect 25 0 41 1;
#X connect 25 0 59 4;
#X connect 26 0 41 1;
#X connect 26 0 59 5;
#X connect 27 0 41 1;
#X connect 27 0 59 6;
#X connect 28 0 41 1;
#X connect 28 0 59 7;
#X connect 29 0 41 1;
#X connect 29 0 59 8;
#X connect 30 0 41 1;
#X connect 30 0 59 9;
#X connect 31 0 41 1;
#X connect 31 0 59 10;
#X connect 32 0 41 1;
#X connect 32 0 59 11;
#X connect 33 0 41 1;
#X connect 33 0 59 12;
#X connect 34 0 41 1;
#X connect 34 0 59 13;
#X connect 35 0 41 1;
#X connect 35 0 59 14;
#X connect 36 0 41 1;
#X connect 36 0 59 15;
#X connect 37 0 21 0;
#X connect 37 1 22 0;
#X connect 37 2 23 0;
#X connect 37 3 24 0;
#X connect 37 4 25 0;
#X connect 37 5 26 0;
#X connect 37 6 27 0;
#X connect 37 7 28 0;
#X connect 37 8 29 0;
#X connect 37 9 30 0;
#X connect 37 10 31 0;
#X connect 37 11 32 0;
#X connect 37 12 33 0;
#X connect 37 13 34 0;
#X connect 37 14 35 0;
#X connect 37 15 36 0;
#X connect 38 0 20 0;
#X connect 39 0 58 0;
#X connect 41 0 40 0;
#X connect 42 0 0 0;
#X connect 42 1 21 0;
#X connect 43 0 1 0;
#X connect 43 1 22 0;
#X connect 44 0 2 0;
#X connect 44 1 23 0;
#X connect 45 0 3 0;
#X connect 45 1 24 0;
#X connect 46 0 4 0;
#X connect 46 1 25 0;
#X connect 47 0 5 0;
#X connect 47 1 26 0;
#X connect 48 0 6 0;
#X connect 48 1 27 0;
#X connect 49 0 7 0;
#X connect 49 1 28 0;
#X connect 50 0 8 0;
#X connect 50 1 29 0;
#X connect 51 0 9 0;
#X connect 51 1 30 0;
#X connect 52 0 10 0;
#X connect 52 1 31 0;
#X connect 53 0 11 0;
#X connect 53 1 32 0;
#X connect 54 0 12 0;
#X connect 54 1 33 0;
#X connect 55 0 13 0;
#X connect 55 1 34 0;
#X connect 56 0 14 0;
#X connect 56 1 35 0;
#X connect 57 0 15 0;
#X connect 57 1 36 0;
#X connect 58 0 42 0;
#X connect 58 1 43 0;
#X connect 58 2 44 0;
#X connect 58 3 45 0;
#X connect 58 4 46 0;
#X connect 58 5 47 0;
#X connect 58 6 48 0;
#X connect 58 7 49 0;
#X connect 58 8 50 0;
#X connect 58 9 51 0;
#X connect 58 10 52 0;
#X connect 58 11 53 0;
#X connect 58 12 54 0;
#X connect 58 13 55 0;
#X connect 58 14 56 0;
#X connect 58 15 57 0;
#X connect 59 0 19 16;
#X connect 59 1 19 17;
#X connect 59 2 19 18;
#X connect 59 3 19 19;
#X connect 59 4 19 20;
#X connect 59 5 19 21;
#X connect 59 6 19 22;
#X connect 59 7 19 23;
#X connect 59 8 19 24;
#X connect 59 9 19 25;
#X connect 59 10 19 26;
#X connect 59 11 19 27;
#X connect 59 12 19 28;
#X connect 59 13 19 29;
#X connect 59 14 19 30;
#X connect 59 15 19 31;
#X connect 59 16 19 0;
#X coords 0 -1 1 1 500 42 2 400 250;
#X restore -192 -142 pd table-pair;
#X obj -192 -163 inlet;
#X obj 301 -165 inlet;
#X obj 301 -94 outlet;
#X obj -192 -93 outlet;
#X connect 0 0 4 0;
#X connect 0 1 3 0;
#X connect 1 0 0 0;
#X connect 2 0 0 1;
#X restore 355 152 pd \$0-tables;
#X obj 457 93 inlet;
#X obj 476 252 outlet;
#X obj 271 47 cnv 3 8 3 empty empty empty 20 12 0 14 -1 -66577 0;
#X obj 272 48 cnv 1 6 1 empty empty empty 20 12 0 14 -262144 -66577
0;
#X obj 271 0 cnv 3 8 3 empty empty empty 20 12 0 14 -1 -66577 0;
#X obj 272 1 cnv 1 6 1 empty empty empty 20 12 0 14 -262144 -66577
0;
#X msg 340 242 0;
#X floatatom 235 156 5 0 0 0 - - -;
#X obj 223 118 mod 16;
#X obj 3 118 t f f b;
#X floatatom 109 316 5 0 0 0 - - -;
#X obj 108 278 mod 16;
#X obj 69 227 t b f b;
#X obj 332 324 t b f b;
#X msg 293 241 16;
#X connect 0 0 2 1;
#X connect 2 0 1 0;
#X connect 3 0 6 0;
#X connect 3 0 68 0;
#X connect 3 0 72 0;
#X connect 5 0 4 0;
#X connect 6 0 5 2;
#X connect 7 0 2 2;
#X connect 8 0 69 0;
#X connect 9 0 10 0;
#X connect 10 0 11 0;
#X connect 10 0 73 0;
#X connect 11 0 10 1;
#X connect 12 0 74 0;
#X connect 12 1 66 0;
#X connect 14 0 58 0;
#X connect 15 0 17 0;
#X connect 16 0 17 0;
#X connect 36 0 14 0;
#X connect 59 0 13 0;
#X connect 59 1 61 0;
#X connect 60 0 59 1;
#X connect 66 0 10 1;
#X connect 68 0 59 0;
#X connect 68 0 67 0;
#X connect 69 0 3 0;
#X connect 69 2 12 0;
#X connect 70 0 5 1;
#X connect 71 0 70 0;
#X connect 72 0 5 0;
#X connect 72 1 71 0;
#X connect 72 2 6 0;
#X connect 73 0 2 0;
#X connect 73 1 0 0;
#X connect 73 2 7 0;
#X connect 74 0 9 0;
#X coords 0 127 15 0 280 50 2 0 0;
