#N canvas 64 112 540 692 10;
#X obj 234 573 outlet~;
#X obj 235 104 inlet~;
#N canvas 181 182 657 686 bypass 0;
#X obj 195 -4 route 0 1;
#X obj 195 23 bng 15 250 50 0 empty empty empty 17 7 0 10 -262144 -1
-1;
#X obj 220 24 bng 15 250 50 0 empty empty empty 17 7 0 10 -262144 -1
-1;
#X msg 168 65 1;
#X msg 195 65 0;
#X msg 220 65 0;
#X msg 246 65 1;
#X obj 74 218 outlet~;
#X obj 195 -33 inlet;
#X obj 75 -33 inlet~;
#X obj 138 -33 inlet~;
#N canvas 628 268 450 300 pot~ 0;
#X obj -183 96 line~;
#X obj -220 175 *~;
#X obj -182 135 *~;
#X msg -183 69 \$1 20;
#X obj -221 20 inlet~;
#X obj -221 205 outlet~;
#X obj -183 43 inlet;
#X connect 0 0 2 0;
#X connect 0 0 2 1;
#X connect 1 0 5 0;
#X connect 2 0 1 1;
#X connect 3 0 0 0;
#X connect 4 0 1 0;
#X connect 6 0 3 0;
#X restore 74 138 pd pot~;
#N canvas 630 270 450 300 pot~ 0;
#X obj -183 96 line~;
#X obj -220 175 *~;
#X obj -182 135 *~;
#X msg -183 69 \$1 20;
#X obj -221 20 inlet~;
#X obj -221 205 outlet~;
#X obj -183 43 inlet;
#X connect 0 0 2 0;
#X connect 0 0 2 1;
#X connect 1 0 5 0;
#X connect 2 0 1 1;
#X connect 3 0 0 0;
#X connect 4 0 1 0;
#X connect 6 0 3 0;
#X restore 137 138 pd pot~;
#X connect 0 0 1 0;
#X connect 0 1 2 0;
#X connect 1 0 3 0;
#X connect 1 0 4 0;
#X connect 2 0 5 0;
#X connect 2 0 6 0;
#X connect 3 0 11 1;
#X connect 4 0 12 1;
#X connect 5 0 11 1;
#X connect 6 0 12 1;
#X connect 8 0 0 0;
#X connect 9 0 11 0;
#X connect 10 0 12 0;
#X connect 11 0 7 0;
#X connect 12 0 7 0;
#X restore 234 534 pd bypass;
#X obj 103 103 cnv 15 74 94 empty empty VCF 4 8 0 12 -257985 -13381
0;
#X floatatom 139 121 5 0 100 0 gain - -;
#X floatatom 139 140 5 0 130 0 freq - -;
#X floatatom 139 159 5 0 130 0 Q - -;
#X obj 147 181 hradio 12 1 0 2 empty empty bypass -38 8 0 10 -228856
-1 -1 0;
#X obj 20 131 loadbang;
#X msg 20 164 0;
#X obj 405 89 inlet;
#X obj 405 116 unpack f f f f;
#X obj 59 238 pack f f f f;
#X obj 380 571 outlet;
#X obj 326 339 vcf~;
#X obj 301 253 *~ \$1;
#X obj 336 295 mtof;
#X obj 372 294 mtof;
#X obj 308 179 * 0.5;
#X obj 58 190 bang;
#X obj 32 89 initbang;
#X msg 13 327 20 130 1 0;
#X obj 316 79 inlet;
#X connect 1 0 2 0;
#X connect 1 0 15 0;
#X connect 2 0 0 0;
#X connect 4 0 12 0;
#X connect 4 0 18 0;
#X connect 5 0 12 1;
#X connect 5 0 16 0;
#X connect 5 0 19 0;
#X connect 6 0 12 2;
#X connect 6 0 17 0;
#X connect 6 0 19 0;
#X connect 7 0 2 2;
#X connect 7 0 12 3;
#X connect 7 0 19 0;
#X connect 8 0 9 0;
#X connect 9 0 7 0;
#X connect 9 0 21 0;
#X connect 10 0 11 0;
#X connect 11 0 4 0;
#X connect 11 1 5 0;
#X connect 11 2 6 0;
#X connect 11 3 7 0;
#X connect 12 0 13 0;
#X connect 14 0 2 1;
#X connect 15 0 14 0;
#X connect 16 0 14 1;
#X connect 17 0 14 2;
#X connect 18 0 15 1;
#X connect 19 0 12 0;
#X connect 20 0 9 0;
#X connect 21 0 11 0;
#X connect 22 0 5 0;
#X coords 0 -1 1 1 80 100 2 100 100;
