#N canvas 484 203 854 692 10;
#X obj 129 576 outlet~;
#X obj 103 103 cnv 15 74 94 empty empty Wave 4 8 0 12 -159808 -262144
0;
#X obj 142 37 loadbang;
#X msg 142 70 0;
#X obj 464 5 inlet;
#X obj 128 8 initbang;
#X obj 105 128 cnv 12 46 12 empty empty sine 1 6 0 9 -159808 -262144
0;
#X obj 105 144 cnv 12 46 12 empty empty saw 1 6 0 9 -159808 -262144
0;
#X obj 105 160 cnv 12 46 12 empty empty triangle 1 6 0 9 -159808 -262144
0;
#X obj 105 176 cnv 12 46 12 empty empty square 1 6 0 9 -159808 -262144
0;
#X obj 151 125 vradio 16 1 0 4 empty empty empty 0 -8 0 10 -159808
-257985 -1 3;
#X obj 87 294 phasor~;
#X obj -6 383 cos~;
#X obj 177 356 *~ -1;
#X obj 185 387 +~ 1;
#X obj 226 412 min~;
#X obj 153 291 tgl 15 0 empty empty empty 17 7 0 10 -262144 -1 -1 0
1;
#X obj 173 292 tgl 15 0 empty empty empty 17 7 0 10 -262144 -1 -1 0
1;
#X obj 195 292 tgl 15 0 empty empty empty 17 7 0 10 -262144 -1 -1 0
1;
#X obj 217 291 tgl 15 0 empty empty empty 17 7 0 10 -262144 -1 -1 1
1;
#X obj 159 236 sel 0 1 2 3;
#X obj 131 207 t f b;
#X msg 125 254 0;
#X obj 122 407 *~ \$1;
#X obj -6 416 *~ \$1;
#X obj 168 476 *~ \$1;
#X obj 290 479 *~ \$1;
#X obj -1 17 inlet;
#X obj 318 93 unpack f;
#X obj 319 256 pack f;
#X floatatom 404 344 5 0 0 0 - - -;
#X obj 248 382 *~ 2;
#X obj 291 407 clip~ -1 1;
#X obj 298 384 *~ 20;
#X obj 293 350 cos~;
#X obj 226 360 *~ 2;
#X obj 226 436 -~ 0.5;
#X obj 227 459 *~ 2;
#X obj 65 386 -~ 0.5;
#X obj 66 409 *~ 2;
#X obj 457 577 outlet;
#X obj 342 449 *~ 0.5;
#X obj 66 476 *~ 0.8;
#X obj 278 574 outlet;
#X obj 73 18 inlet;
#X obj 52 67 unpack;
#X obj 65 151 mtof;
#X obj 40 214 +;
#X obj 19 150 bang;
#X floatatom 215 77 5 0 100 0 - - -;
#X obj 344 143 * 0.01;
#X obj 435 97 nbx 3 14 0 100 0 0 empty empty empty 0 -8 0 6 -159808
-257985 -1 0 256;
#X connect 2 0 3 0;
#X connect 3 0 10 0;
#X connect 4 0 28 0;
#X connect 5 0 3 0;
#X connect 10 0 21 0;
#X connect 10 0 29 0;
#X connect 11 0 12 0;
#X connect 11 0 13 0;
#X connect 11 0 34 0;
#X connect 11 0 35 0;
#X connect 11 0 38 0;
#X connect 12 0 24 0;
#X connect 13 0 14 0;
#X connect 14 0 31 0;
#X connect 15 0 36 0;
#X connect 16 0 30 0;
#X connect 16 0 24 1;
#X connect 17 0 23 1;
#X connect 18 0 25 1;
#X connect 19 0 26 1;
#X connect 20 0 16 0;
#X connect 20 1 17 0;
#X connect 20 2 18 0;
#X connect 20 3 19 0;
#X connect 21 0 20 0;
#X connect 21 1 22 0;
#X connect 22 0 16 0;
#X connect 22 0 17 0;
#X connect 22 0 18 0;
#X connect 22 0 19 0;
#X connect 23 0 0 0;
#X connect 24 0 42 0;
#X connect 25 0 0 0;
#X connect 26 0 0 0;
#X connect 27 0 47 1;
#X connect 27 0 48 0;
#X connect 28 0 10 0;
#X connect 29 0 40 0;
#X connect 31 0 15 1;
#X connect 32 0 41 0;
#X connect 33 0 32 0;
#X connect 34 0 33 0;
#X connect 35 0 15 0;
#X connect 36 0 37 0;
#X connect 37 0 25 0;
#X connect 38 0 39 0;
#X connect 39 0 23 0;
#X connect 41 0 26 0;
#X connect 42 0 0 0;
#X connect 44 0 45 0;
#X connect 44 0 43 0;
#X connect 45 0 46 0;
#X connect 46 0 47 0;
#X connect 47 0 11 0;
#X connect 48 0 47 0;
#X connect 49 0 50 0;
#X connect 50 0 11 1;
#X connect 51 0 50 0;
#X coords 0 -1 1 1 80 100 2 100 100;
