#N canvas 153 0 876 550 10;
#X obj 244 32 cnv 15 130 150 empty empty Simple_metronome 0 7 0 14
-233017 -66577 0;
#X obj 248 46 tgl 15 0 empty empty empty 17 7 0 10 -262144 -1 -1 0
1;
#X obj 248 70 metro 1000;
#X obj 248 98 counter 1 4;
#X obj 248 128 route 1 2 3 4;
#X obj 340 93 bng 15 250 50 0 empty empty empty 17 7 0 10 -262144 -1
-1;
#X floatatom 340 128 5 0 0 2 Beat - -;
#X obj 248 157 bng 15 250 50 0 empty empty empty 17 7 0 10 -262144
-1 -1;
#X obj 266 157 bng 15 250 50 0 empty empty empty 17 7 0 10 -262144
-1 -1;
#X obj 285 157 bng 15 250 50 0 empty empty empty 17 7 0 10 -262144
-1 -1;
#X obj 304 157 bng 15 250 50 0 empty empty empty 17 7 0 10 -262144
-1 -1;
#N canvas 872 101 435 501 env 0;
#X obj 29 5 inlet;
#X obj 30 483 outlet~;
#X obj 29 423 vline~;
#X msg 29 203 0 \, 1 \$1;
#X msg 224 375 0 \$1;
#X obj 254 307 * 500;
#X obj 59 71 * 500;
#X obj 100 253 pack;
#X obj 224 240 random 1000;
#X msg 100 274 \$2 \$1;
#X obj 129 148 * 500;
#X obj 100 189 max 10;
#X obj 29 114 max 10;
#X obj 224 352 max 10;
#X obj 29 25 bang;
#X obj 129 126 receive \$0-d;
#X obj 59 50 receive \$0-a;
#X obj 223 218 delay;
#X obj 254 287 receive \$0-r;
#X obj 224 331 float;
#X obj 224 261 delay;
#X obj 29 92 float;
#X obj 46 139 delay;
#X obj 100 170 float;
#X obj 122 231 receive \$0-s;
#X text 243 4 Logic of an envelope;
#X text 70 34 attack;
#X text 142 110 decay;
#X text 269 271 release;
#X text 132 216 sustain;
#X text 83 416 We will go over line~ objects later. It's a linear ramp
generator. You tell the signal where to start \, where to end \, and
how long to get there.;
#X text 92 465 This envelope controlled signal is sent out to be multiplied
to the wavetable oscillator as the amplitude control.;
#X connect 0 0 14 0;
#X connect 2 0 1 0;
#X connect 3 0 2 0;
#X connect 4 0 2 0;
#X connect 5 0 19 1;
#X connect 6 0 21 1;
#X connect 7 0 9 0;
#X connect 8 0 20 0;
#X connect 9 0 2 0;
#X connect 10 0 23 1;
#X connect 11 0 7 0;
#X connect 11 0 17 0;
#X connect 12 0 3 0;
#X connect 12 0 22 0;
#X connect 13 0 4 0;
#X connect 14 0 21 0;
#X connect 15 0 10 0;
#X connect 16 0 6 0;
#X connect 17 0 8 0;
#X connect 18 0 5 0;
#X connect 19 0 13 0;
#X connect 20 0 19 0;
#X connect 21 0 12 0;
#X connect 22 0 23 0;
#X connect 23 0 11 0;
#X connect 24 0 7 1;
#X restore 112 195 pd env;
#X obj 405 3 cnv 15 70 60 empty empty empty 20 12 0 14 -241291 -66577
0;
#X obj 411 23 vsl 10 32 0 1 0 1 \$0-a \$0-a a 0 -8 0 8 -262144 -1 -1
600 0;
#X obj 424 23 vsl 10 32 0 1 0 1 \$0-d \$0-d d 0 -8 0 8 -262144 -1 -1
0 0;
#X obj 437 23 vsl 10 32 0 1 0 1 \$0-s \$0-s s 0 -8 0 8 -262144 -1 -1
0 0;
#X obj 450 23 vsl 10 32 0 1 0 1 \$0-r \$0-r r 0 -8 0 8 -262144 -1 -1
100 0;
#X obj 405 109 output~;
#X obj 55 221 *~;
#X obj 55 247 throw~;
#X obj 406 71 catch~;
#N canvas 872 101 435 501 env 0;
#X obj 29 5 inlet;
#X obj 30 483 outlet~;
#X obj 29 423 vline~;
#X msg 29 203 0 \, 1 \$1;
#X msg 224 375 0 \$1;
#X obj 254 307 * 500;
#X obj 59 71 * 500;
#X obj 100 253 pack;
#X obj 224 240 random 1000;
#X msg 100 274 \$2 \$1;
#X obj 129 148 * 500;
#X obj 100 189 max 10;
#X obj 29 114 max 10;
#X obj 224 352 max 10;
#X obj 29 25 bang;
#X obj 129 126 receive \$0-d;
#X obj 59 50 receive \$0-a;
#X obj 223 218 delay;
#X obj 254 287 receive \$0-r;
#X obj 224 331 float;
#X obj 224 261 delay;
#X obj 29 92 float;
#X obj 46 139 delay;
#X obj 100 170 float;
#X obj 122 231 receive \$0-s;
#X text 243 4 Logic of an envelope;
#X text 70 34 attack;
#X text 142 110 decay;
#X text 269 271 release;
#X text 132 216 sustain;
#X text 83 416 We will go over line~ objects later. It's a linear ramp
generator. You tell the signal where to start \, where to end \, and
how long to get there.;
#X text 92 465 This envelope controlled signal is sent out to be multiplied
to the wavetable oscillator as the amplitude control.;
#X connect 0 0 14 0;
#X connect 2 0 1 0;
#X connect 3 0 2 0;
#X connect 4 0 2 0;
#X connect 5 0 19 1;
#X connect 6 0 21 1;
#X connect 7 0 9 0;
#X connect 8 0 20 0;
#X connect 9 0 2 0;
#X connect 10 0 23 1;
#X connect 11 0 7 0;
#X connect 11 0 17 0;
#X connect 12 0 3 0;
#X connect 12 0 22 0;
#X connect 13 0 4 0;
#X connect 14 0 21 0;
#X connect 15 0 10 0;
#X connect 16 0 6 0;
#X connect 17 0 8 0;
#X connect 18 0 5 0;
#X connect 19 0 13 0;
#X connect 20 0 19 0;
#X connect 21 0 12 0;
#X connect 22 0 23 0;
#X connect 23 0 11 0;
#X connect 24 0 7 1;
#X restore 226 198 pd env;
#X obj 167 220 *~;
#X obj 167 244 throw~;
#N canvas 872 101 435 501 env 0;
#X obj 29 5 inlet;
#X obj 30 483 outlet~;
#X obj 29 423 vline~;
#X msg 29 203 0 \, 1 \$1;
#X msg 224 375 0 \$1;
#X obj 254 307 * 500;
#X obj 59 71 * 500;
#X obj 100 253 pack;
#X obj 224 240 random 1000;
#X msg 100 274 \$2 \$1;
#X obj 129 148 * 500;
#X obj 100 189 max 10;
#X obj 29 114 max 10;
#X obj 224 352 max 10;
#X obj 29 25 bang;
#X obj 129 126 receive \$0-d;
#X obj 59 50 receive \$0-a;
#X obj 223 218 delay;
#X obj 254 287 receive \$0-r;
#X obj 224 331 float;
#X obj 224 261 delay;
#X obj 29 92 float;
#X obj 46 139 delay;
#X obj 100 170 float;
#X obj 122 231 receive \$0-s;
#X text 243 4 Logic of an envelope;
#X text 70 34 attack;
#X text 142 110 decay;
#X text 269 271 release;
#X text 132 216 sustain;
#X text 83 416 We will go over line~ objects later. It's a linear ramp
generator. You tell the signal where to start \, where to end \, and
how long to get there.;
#X text 92 465 This envelope controlled signal is sent out to be multiplied
to the wavetable oscillator as the amplitude control.;
#X connect 0 0 14 0;
#X connect 2 0 1 0;
#X connect 3 0 2 0;
#X connect 4 0 2 0;
#X connect 5 0 19 1;
#X connect 6 0 21 1;
#X connect 7 0 9 0;
#X connect 8 0 20 0;
#X connect 9 0 2 0;
#X connect 10 0 23 1;
#X connect 11 0 7 0;
#X connect 11 0 17 0;
#X connect 12 0 3 0;
#X connect 12 0 22 0;
#X connect 13 0 4 0;
#X connect 14 0 21 0;
#X connect 15 0 10 0;
#X connect 16 0 6 0;
#X connect 17 0 8 0;
#X connect 18 0 5 0;
#X connect 19 0 13 0;
#X connect 20 0 19 0;
#X connect 21 0 12 0;
#X connect 22 0 23 0;
#X connect 23 0 11 0;
#X connect 24 0 7 1;
#X restore 344 198 pd env;
#X obj 285 219 *~;
#X obj 285 243 throw~;
#N canvas 872 101 435 501 env 0;
#X obj 29 5 inlet;
#X obj 30 483 outlet~;
#X obj 29 423 vline~;
#X msg 29 203 0 \, 1 \$1;
#X msg 224 375 0 \$1;
#X obj 254 307 * 500;
#X obj 59 71 * 500;
#X obj 100 253 pack;
#X obj 224 240 random 1000;
#X msg 100 274 \$2 \$1;
#X obj 129 148 * 500;
#X obj 100 189 max 10;
#X obj 29 114 max 10;
#X obj 224 352 max 10;
#X obj 29 25 bang;
#X obj 129 126 receive \$0-d;
#X obj 59 50 receive \$0-a;
#X obj 223 218 delay;
#X obj 254 287 receive \$0-r;
#X obj 224 331 float;
#X obj 224 261 delay;
#X obj 29 92 float;
#X obj 46 139 delay;
#X obj 100 170 float;
#X obj 122 231 receive \$0-s;
#X text 243 4 Logic of an envelope;
#X text 70 34 attack;
#X text 142 110 decay;
#X text 269 271 release;
#X text 132 216 sustain;
#X text 83 416 We will go over line~ objects later. It's a linear ramp
generator. You tell the signal where to start \, where to end \, and
how long to get there.;
#X text 92 465 This envelope controlled signal is sent out to be multiplied
to the wavetable oscillator as the amplitude control.;
#X connect 0 0 14 0;
#X connect 2 0 1 0;
#X connect 3 0 2 0;
#X connect 4 0 2 0;
#X connect 5 0 19 1;
#X connect 6 0 21 1;
#X connect 7 0 9 0;
#X connect 8 0 20 0;
#X connect 9 0 2 0;
#X connect 10 0 23 1;
#X connect 11 0 7 0;
#X connect 11 0 17 0;
#X connect 12 0 3 0;
#X connect 12 0 22 0;
#X connect 13 0 4 0;
#X connect 14 0 21 0;
#X connect 15 0 10 0;
#X connect 16 0 6 0;
#X connect 17 0 8 0;
#X connect 18 0 5 0;
#X connect 19 0 13 0;
#X connect 20 0 19 0;
#X connect 21 0 12 0;
#X connect 22 0 23 0;
#X connect 23 0 11 0;
#X connect 24 0 7 1;
#X restore 459 200 pd env;
#X obj 393 224 *~;
#X obj 393 250 throw~;
#X obj 56 195 osc~ 220;
#X obj 168 196 osc~ 440;
#X obj 286 196 osc~ 880;
#X obj 394 199 osc~ 1760;
#X text 66 70 Metro sends a bang every X ms;
#X text 130 99 Counts from 1-4;
#X text 27 129 sends out a bang in matching outlet;
#X text 448 70 Catches all thrown signals;
#X text 435 249 sends out signal to a catch~ object;
#X text 474 18 Sends to all pd env subpatches;
#X text 60 330 This is a cheap way to build a metronome that counts
out 4 beats of a measure.;
#X text 63 370 There are definitely better ways to cycle through a
list of pitches.;
#X text 63 406 Practice using abstractions by either copying and pasting
subpatches from previous work like [pd env] \, or by saving previous
work as it's own patch and use that patch as an object like [output~].
;
#X text 68 476 You can have multiple metro objects \, but they might
get out of sync. You can double the speed of the metronome \, then
make the counter count to 8 \, and now you have 8th notes.;
#X obj 477 321 cnv 15 120 100 empty empty empty 20 12 0 14 -233017
-66577 0;
#X floatatom 503 348 5 0 0 0 BPM - -;
#X obj 503 374 expr 60000/$f1;
#X floatatom 503 400 5 0 0 0 ms - -;
#X text 475 302 BPM calculator to use for metro;
#X text 487 321 60 \, 000/BPM = ms;
#X text 594 372 [expr] is an any way to do math;
#X text 621 384 BPM replaces "$f1" in the formula;
#X obj 503 486 s bpm;
#X obj 329 48 r bpm;
#X text 479 124 1) Turn on sound;
#X text 117 44 2) Turn on/off metro;
#X text 597 343 3) Set metro with beats per minute;
#X text 469 504 [s whatever] will "send" a message (or number or list)
to the matching [r whatever] object.;
#X obj 532 430 * 2;
#X floatatom 532 453 5 0 0 0 - - -;
#X text 566 454 1/8th note time in ms (not connected);
#X connect 1 0 2 0;
#X connect 2 0 5 0;
#X connect 2 0 3 0;
#X connect 3 0 6 0;
#X connect 3 0 4 0;
#X connect 4 0 7 0;
#X connect 4 1 8 0;
#X connect 4 2 9 0;
#X connect 4 3 10 0;
#X connect 7 0 11 0;
#X connect 8 0 21 0;
#X connect 9 0 24 0;
#X connect 10 0 27 0;
#X connect 11 0 18 1;
#X connect 18 0 19 0;
#X connect 20 0 17 0;
#X connect 20 0 17 1;
#X connect 21 0 22 1;
#X connect 22 0 23 0;
#X connect 24 0 25 1;
#X connect 25 0 26 0;
#X connect 27 0 28 1;
#X connect 28 0 29 0;
#X connect 30 0 18 0;
#X connect 31 0 22 0;
#X connect 32 0 25 0;
#X connect 33 0 28 0;
#X connect 45 0 46 0;
#X connect 46 0 47 0;
#X connect 47 0 52 0;
#X connect 47 0 58 0;
#X connect 53 0 2 1;
#X connect 58 0 59 0;
