#N canvas 244 21 705 624 10;
#X declare -lib mrpeach;
#N canvas 778 0 450 670 gran1 0;
#X obj 63 47 inlet;
#X obj 139 47 inlet;
#X obj 66 535 outlet~;
#X obj 253 535 outlet~;
#X obj 63 367 vd~ b1;
#X obj 63 205 phasor~;
#X obj 62 274 *~ -1;
#X obj 62 299 +~ 1;
#X obj 132 329 sig~ 1;
#X obj 197 337 cos~;
#X obj 133 362 -~;
#X obj 134 387 *~ 0.5;
#X obj 64 406 *~;
#X obj 108 302 samphold~;
#X obj 63 331 *~;
#X obj 109 274 sig~;
#X floatatom 125 201 5 0 0 0 - - -;
#X floatatom 63 127 10 0 0 0 - - -;
#X floatatom 63 178 5 0 0 0 - - -;
#X obj 139 88 t b f;
#X obj 125 175 / 44.1;
#X obj 254 405 vd~ b1;
#X obj 252 307 *~ -1;
#X obj 253 340 +~ 1;
#X obj 314 366 sig~ 1;
#X obj 378 373 cos~;
#X obj 315 397 -~;
#X obj 316 422 *~ 0.5;
#X obj 254 446 *~;
#X obj 296 336 samphold~;
#X obj 253 372 *~;
#X obj 297 308 sig~;
#X obj 252 238 +~ 0.5;
#X obj 252 260 wrap~;
#X obj 63 148 expr (pow(2 \, ($f2/12)) - 1) * (44100/$f1);
#X text 178 365 Hanning;
#X obj 254 478 *~ 0.5;
#X obj 65 482 *~ 0.5;
#X connect 0 0 17 0;
#X connect 1 0 19 0;
#X connect 4 0 12 0;
#X connect 5 0 6 0;
#X connect 5 0 9 0;
#X connect 5 0 13 1;
#X connect 5 0 32 0;
#X connect 6 0 7 0;
#X connect 7 0 14 0;
#X connect 8 0 10 0;
#X connect 9 0 10 1;
#X connect 10 0 11 0;
#X connect 11 0 12 1;
#X connect 12 0 36 0;
#X connect 12 0 37 0;
#X connect 13 0 14 1;
#X connect 14 0 4 0;
#X connect 15 0 13 0;
#X connect 16 0 31 0;
#X connect 16 0 15 0;
#X connect 17 0 20 0;
#X connect 17 0 34 0;
#X connect 18 0 5 0;
#X connect 19 0 17 0;
#X connect 19 1 34 1;
#X connect 20 0 16 0;
#X connect 21 0 28 0;
#X connect 22 0 23 0;
#X connect 23 0 30 0;
#X connect 24 0 26 0;
#X connect 25 0 26 1;
#X connect 26 0 27 0;
#X connect 27 0 28 1;
#X connect 28 0 36 0;
#X connect 28 0 37 0;
#X connect 29 0 30 1;
#X connect 30 0 21 0;
#X connect 31 0 29 0;
#X connect 32 0 33 0;
#X connect 33 0 22 0;
#X connect 33 0 29 1;
#X connect 33 0 25 0;
#X connect 34 0 18 0;
#X connect 36 0 3 0;
#X connect 37 0 2 0;
#X restore 59 445 pd gran1;
#X floatatom 104 418 5 0 0 0 - - -;
#X obj 32 263 vsl 15 128 100 30000 0 0 empty empty empty 0 -8 0 8 -262144
-1 -1 0 1;
#X obj 32 399 t b f;
#X obj 104 306 vsl 15 73 -36 36 0 0 empty empty empty 0 -8 0 8 -262144
-1 -1 0 1;
#X text 121 370 -36;
#X text 127 298 36;
#X text 51 256 30000;
#X text 49 380 100;
#X text 97 284 Transposition (Half steps);
#X text 28 244 window width;
#X obj 139 448 hradio 15 1 0 7 empty empty empty 0 -8 0 10 -262144
-1 -1 4;
#X obj 138 493 delwrite~ b1 5000;
#N canvas 242 170 450 439 sampleholdfun1 0;
#X obj 147 219 phasor~ 5;
#X obj 50 194 phasor~ 7;
#X obj 50 219 samphold~;
#X floatatom 50 169 0 0 0 0 - - -;
#X floatatom 147 164 0 0 0 0 - - -;
#X obj 50 294 tabread4~ mtof;
#X obj 50 244 *~ 48;
#X obj 50 269 +~ 36;
#X obj 50 319 osc~;
#X msg 207 190 0;
#X obj 50 144 unpack;
#X text 245 187 <-- reset phase;
#N canvas 0 0 439 429 tables 0;
#N canvas 0 0 450 300 (subpatch) 0;
#X array dbtorms 123 float 1;
#A 0 0 0 1.25893e-005 1.41254e-005 1.58489e-005 1.77828e-005 1.99526e-005
2.23872e-005 2.51189e-005 2.81838e-005 3.16228e-005 3.54813e-005 3.98107e-005
4.46684e-005 5.01187e-005 5.62341e-005 6.30957e-005 7.07946e-005 7.94328e-005
8.91251e-005 0.0001 0.000112202 0.000125893 0.000141254 0.000158489
0.000177828 0.000199526 0.000223872 0.000251189 0.000281838 0.000316228
0.000354813 0.000398107 0.000446684 0.000501187 0.000562341 0.000630957
0.000707946 0.000794328 0.000891251 0.001 0.00112202 0.00125893 0.00141254
0.00158489 0.00177828 0.00199526 0.00223872 0.00251189 0.00281838 0.00316228
0.00354813 0.00398107 0.00446684 0.00501187 0.00562341 0.00630957 0.00707946
0.00794328 0.00891251 0.01 0.0112202 0.0125893 0.0141254 0.0158489
0.0177828 0.0199526 0.0223872 0.0251189 0.0281838 0.0316228 0.0354813
0.0398107 0.0446684 0.0501187 0.0562341 0.0630957 0.0707946 0.0794328
0.0891251 0.1 0.112202 0.125893 0.141254 0.158489 0.177828 0.199526
0.223872 0.251189 0.281838 0.316228 0.354813 0.398107 0.446684 0.501187
0.562341 0.630957 0.707946 0.794328 0.891251 1 1.12202 1.25893 1.41254
1.58489 1.77828 1.99526 2.23872 2.51189 2.81838 3.16228 3.54813 3.98107
4.46684 5.01187 5.62341 6.30957 7.07946 7.94328 8.91251 10 11.2202
12.5893;
#X coords 0 10 123 0 200 100 1;
#X restore 78 55 graph;
#X text 280 148 0;
#X text 282 48 10;
#X text 97 158 ------ 123 samples ------;
#N canvas 0 0 450 300 (subpatch) 0;
#X array mtof 130 float 1;
#A 0 8.1758 8.66196 9.17702 9.72272 10.3009 10.9134 11.5623 12.2499
12.9783 13.75 14.5676 15.4339 16.3516 17.3239 18.354 19.4454 20.6017
21.8268 23.1247 24.4997 25.9565 27.5 29.1352 30.8677 32.7032 34.6478
36.7081 38.8909 41.2034 43.6535 46.2493 48.9994 51.9131 55 58.2705
61.7354 65.4064 69.2957 73.4162 77.7817 82.4069 87.3071 92.4986 97.9989
103.826 110 116.541 123.471 130.813 138.591 146.832 155.563 164.814
174.614 184.997 195.998 207.652 220 233.082 246.942 261.626 277.183
293.665 311.127 329.628 349.228 369.994 391.995 415.305 440 466.164
493.883 523.251 554.365 587.33 622.254 659.255 698.456 739.989 783.991
830.609 880 932.328 987.767 1046.5 1108.73 1174.66 1244.51 1318.51
1396.91 1479.98 1567.98 1661.22 1760 1864.66 1975.53 2093 2217.46 2349.32
2489.02 2637.02 2793.83 2959.96 3135.96 3322.44 3520 3729.31 3951.07
4186.01 4434.92 4698.64 4978.03 5274.04 5587.65 5919.91 6271.93 6644.88
7040 7458.62 7902.13 8372.02 8869.84 9397.27 9956.06 10548.1 11175.3
11839.8 12543.9 13289.8 14080;
#X coords 0 12000 130 0 200 100 1;
#X restore 85 232 graph;
#X text 95 340 ------ 130 samples ------;
#X text 294 325 0;
#X text 296 225 12000;
#X restore 228 28 pd tables;
#X obj 50 390 outlet~;
#X obj 72 12 inlet;
#X msg 340 90 32 96.33;
#X msg 153 90 5 7;
#X msg 73 90 1 5;
#X msg 107 90 2 11;
#X msg 190 90 3.7 8.8;
#X msg 264 90 3.4 8.9;
#X obj 51 353 *~ 0;
#X obj 72 35 route 0 1 2 3 4 5 6;
#X msg 342 274 0;
#X msg 300 273 1;
#X floatatom 388 203 5 0 0 0 - - -;
#X connect 0 0 2 1;
#X connect 1 0 2 0;
#X connect 2 0 6 0;
#X connect 3 0 1 0;
#X connect 4 0 0 0;
#X connect 5 0 8 0;
#X connect 6 0 7 0;
#X connect 7 0 5 0;
#X connect 8 0 21 0;
#X connect 9 0 0 1;
#X connect 9 0 1 1;
#X connect 10 0 3 0;
#X connect 10 1 4 0;
#X connect 14 0 22 0;
#X connect 14 0 25 0;
#X connect 15 0 10 0;
#X connect 16 0 10 0;
#X connect 17 0 10 0;
#X connect 18 0 10 0;
#X connect 19 0 10 0;
#X connect 20 0 10 0;
#X connect 21 0 13 0;
#X connect 22 0 17 0;
#X connect 22 0 24 0;
#X connect 22 1 18 0;
#X connect 22 1 24 0;
#X connect 22 2 16 0;
#X connect 22 2 24 0;
#X connect 22 3 19 0;
#X connect 22 3 24 0;
#X connect 22 4 20 0;
#X connect 22 4 24 0;
#X connect 22 5 15 0;
#X connect 22 5 24 0;
#X connect 22 6 23 0;
#X connect 23 0 21 1;
#X connect 24 0 21 1;
#X restore 139 466 pd sampleholdfun1;
#X obj 104 264 autoscale -36 36;
#X obj 29 13 cnv 15 650 200 empty empty OSC_routing_and_stuffs 20 12
0 14 -233017 -66577 0;
#X obj 325 41 bng 15 250 50 0 empty empty empty 17 7 0 10 -262144 -1
-1;
#X obj 376 40 bng 15 250 50 0 empty empty empty 17 7 0 10 -262144 -1
-1;
#X obj 427 40 bng 15 250 50 0 empty empty empty 17 7 0 10 -262144 -1
-1;
#X obj 478 40 bng 15 250 50 0 empty empty empty 17 7 0 10 -262144 -1
-1;
#X obj 529 40 bng 15 250 50 0 empty empty empty 17 7 0 10 -262144 -1
-1;
#X msg 376 61 1;
#X msg 427 60 2;
#X msg 478 59 3;
#X msg 529 59 4;
#X obj 325 90 f;
#X msg 325 61 6;
#X obj 325 114 + 1;
#X obj 325 17 route REST FIST WAVE_OUT WAVE_IN DOUBLE_TAP FINGERS_SPREAD
;
#X obj 606 41 bng 15 250 50 0 empty empty empty 17 7 0 10 -262144 -1
-1;
#X msg 606 60 5;
#X obj 39 41 udpreceive 5432;
#X obj 39 69 unpackOSC;
#X obj 137 41 import mrpeach;
#X floatatom 39 168 5 0 0 0 - - -;
#X floatatom 76 169 5 0 0 2 pitch - -;
#X floatatom 114 169 5 0 0 0 - - -;
#N canvas 210 274 450 339 scalestuff 0;
#X obj 56 136 unpack f f f;
#X obj 56 172 * 100;
#X obj 108 179 * 100;
#X obj 164 182 * 100;
#X obj 56 195 int;
#X obj 108 203 int;
#X obj 164 205 int;
#X obj 56 218 change;
#X obj 110 225 change;
#X obj 168 226 change;
#X obj 56 64 inlet;
#X obj 56 241 / 100;
#X obj 110 247 / 100;
#X obj 168 250 / 100;
#X obj 56 288 outlet;
#X obj 110 290 outlet;
#X obj 168 286 outlet;
#X connect 0 0 1 0;
#X connect 0 1 2 0;
#X connect 0 2 3 0;
#X connect 1 0 4 0;
#X connect 2 0 5 0;
#X connect 3 0 6 0;
#X connect 4 0 7 0;
#X connect 5 0 8 0;
#X connect 6 0 9 0;
#X connect 7 0 11 0;
#X connect 8 0 12 0;
#X connect 9 0 13 0;
#X connect 10 0 0 0;
#X connect 11 0 14 0;
#X connect 12 0 15 0;
#X connect 13 0 16 0;
#X restore 39 132 pd scalestuff;
#X text 118 154 roll;
#X text 42 151 yaw;
#N canvas 630 307 450 339 scalestuff2 0;
#X obj 56 136 unpack f f f;
#X obj 104 171 * 100;
#X obj 160 174 * 100;
#X obj 56 195 int;
#X obj 104 195 int;
#X obj 160 197 int;
#X obj 56 218 change;
#X obj 106 217 change;
#X obj 164 218 change;
#X obj 56 64 inlet;
#X obj 106 239 / 100;
#X obj 164 242 / 100;
#X obj 56 275 outlet;
#X obj 106 273 outlet;
#X obj 164 276 outlet;
#X obj 56 172 * 100;
#X obj 56 241 / 100;
#X connect 0 0 15 0;
#X connect 0 1 1 0;
#X connect 0 2 2 0;
#X connect 1 0 4 0;
#X connect 2 0 5 0;
#X connect 3 0 6 0;
#X connect 4 0 7 0;
#X connect 5 0 8 0;
#X connect 6 0 16 0;
#X connect 7 0 10 0;
#X connect 8 0 11 0;
#X connect 9 0 0 0;
#X connect 10 0 13 0;
#X connect 11 0 14 0;
#X connect 15 0 3 0;
#X connect 16 0 12 0;
#X restore 158 137 pd scalestuff2;
#X floatatom 158 169 5 0 0 0 - - -;
#X floatatom 198 169 5 0 0 2 - - -;
#X floatatom 239 169 5 0 0 0 - - -;
#X text 164 154 x;
#X text 207 153 y;
#X text 246 153 z;
#X text 48 113 orientation;
#X text 163 120 Accelleration;
#X floatatom 278 170 5 0 0 0 - - -;
#N canvas 100 191 450 300 scalestuff3 0;
#X obj 98 74 inlet;
#X obj 98 148 change;
#X obj 98 195 outlet;
#X obj 98 100 * 10;
#X obj 98 124 int;
#X obj 98 170 / 10;
#X connect 0 0 3 0;
#X connect 1 0 5 0;
#X connect 3 0 4 0;
#X connect 4 0 1 0;
#X connect 5 0 2 0;
#X restore 268 135 pd scalestuff3;
#X obj 39 93 routeOSC /orientation /acc /emgAvg /pose;
#X text 280 153 Emg Avg;
#X obj 32 223 autoscale 30000 100;
#X text 395 129 IGNORE THIS PART;
#X obj 58 566 dac~;
#X obj 76 505 hsl 42 23 0.01 1 1 0 \$0-v \$0-v volume 7 13 1 9 -245500
-13381 -1 0 0;
#X obj 58 538 *~;
#X obj 336 514 loadbang;
#X msg 336 538 \; pd dsp 1;
#X text 245 445 1) select a button (far right is mute);
#X text 123 512 2) turn up volume;
#X text 261 329 3) mess with window with and transposition sliders.
;
#X text 261 342 4) enjoy!;
#X connect 0 0 57 0;
#X connect 0 1 12 0;
#X connect 1 0 0 1;
#X connect 2 0 3 0;
#X connect 3 0 1 0;
#X connect 3 1 0 0;
#X connect 4 0 1 0;
#X connect 11 0 13 0;
#X connect 13 0 12 0;
#X connect 14 0 4 0;
#X connect 16 0 26 0;
#X connect 17 0 21 0;
#X connect 18 0 22 0;
#X connect 19 0 23 0;
#X connect 20 0 24 0;
#X connect 21 0 25 0;
#X connect 22 0 25 0;
#X connect 23 0 25 0;
#X connect 24 0 25 0;
#X connect 25 0 27 0;
#X connect 26 0 25 0;
#X connect 27 0 11 0;
#X connect 28 0 16 0;
#X connect 28 1 17 0;
#X connect 28 2 18 0;
#X connect 28 3 19 0;
#X connect 28 4 20 0;
#X connect 28 5 29 0;
#X connect 29 0 30 0;
#X connect 30 0 25 0;
#X connect 31 0 32 0;
#X connect 32 0 51 0;
#X connect 35 0 14 0;
#X connect 36 0 53 0;
#X connect 37 0 34 0;
#X connect 37 1 35 0;
#X connect 37 2 36 0;
#X connect 40 0 41 0;
#X connect 40 1 42 0;
#X connect 40 2 43 0;
#X connect 50 0 49 0;
#X connect 51 0 37 0;
#X connect 51 1 40 0;
#X connect 51 2 50 0;
#X connect 51 3 28 0;
#X connect 53 0 2 0;
#X connect 56 0 57 1;
#X connect 57 0 55 0;
#X connect 57 0 55 1;
#X connect 58 0 59 0;
