#N canvas 289 8 941 670 10;
#X declare -lib mrpeach;
#X obj 362 327 dac~;
#N canvas 270 100 944 457 interface 0;
#X obj 100 253 cnv 15 100 120 empty empty OSC 8 12 1 14 -258699 -262144
0;
#X obj 201 253 cnv 15 200 120 empty empty AMP 8 12 1 14 -260818 -262144
0;
#X obj 100 132 cnv 15 300 120 empty empty FILTER 8 12 1 14 -62784 -262144
0;
#X obj 322 287 vsl 12 60 0.01 1 1 0 empty \$0-amplevel-r L 0 -8 1 8
-262144 -1 -262144 4420 1;
#X obj 285 164 vsl 12 60 0.01 1 0 0 empty \$0-filterlevel-r LEV 0 -8
1 8 -262144 -1 -262144 536 1;
#X obj 116 164 vsl 12 60 0.01 1 1 1 empty \$0-filterattack-r A 0 -8
1 8 -262144 -1 -262144 0 1;
#X obj 156 164 vsl 12 60 0.01 1 1 1 empty \$0-filterdecay-r D 0 -8
1 8 -262144 -1 -262144 0 1;
#X obj 246 164 vsl 12 60 0.01 1 0 0 empty \$0-filteramount-r AMT 0
-8 1 8 -262144 -1 -262144 536 1;
#X obj 157 286 vsl 12 60 0.01 1 1 0 empty \$0-oscfatness-r FAT 0 -8
1 8 -262144 -1 -262144 0 1;
#X obj 324 164 vsl 12 60 0.01 1 0 0 empty \$0-filterresonance-r RES
0 -8 1 8 -262144 -33289 -262144 536 1;
#X obj 244 287 vsl 12 60 0.01 1 1 1 empty \$0-ampattack-r A 0 -8 1
8 -262144 -1 -262144 2062 1;
#X obj 283 287 vsl 12 60 0.01 1 1 1 empty \$0-ampdecay-r D 0 -8 1 8
-262144 -1 -262144 2062 1;
#X obj 53 420 s \$0-oscf;
#X obj 136 423 s \$0-oscfat;
#X obj 4 370 s \$0-fenva;
#X obj 131 390 s \$0-fenvd;
#X obj 217 421 s \$0-aenva;
#X obj 295 421 s \$0-aenvd;
#X obj 374 421 s \$0-amp;
#X obj 377 389 s \$0-fres;
#X obj 218 391 s \$0-frng;
#X obj 308 394 s \$0-frle;
#X obj 322 355 nbx 3 14 -1e+037 1e+037 0 0 empty empty empty 0 -6 0
10 -260818 -262144 -1 0.314996 256;
#X obj 283 355 nbx 3 14 -1e+037 1e+037 0 0 empty empty empty 0 -6 0
10 -260818 -262144 -1 0.0500015 256;
#X obj 244 355 nbx 3 14 -1e+037 1e+037 0 0 empty empty empty 0 -6 0
10 -260818 -262144 -1 0.0500015 256;
#X obj 157 352 nbx 3 14 -1e+037 1e+037 0 0 empty empty empty 0 -6 0
10 -258699 -262144 -1 0.01 256;
#X obj 112 351 nbx 3 14 -1e+037 1e+037 0 0 empty empty empty 0 -6 0
10 -258699 -262144 -1 0 256;
#X obj 324 234 nbx 3 14 -1e+037 1e+037 0 0 empty empty empty 0 -6 0
10 -62784 -262144 -1 0.099939 256;
#X obj 285 234 nbx 3 14 -1e+037 1e+037 0 0 empty empty empty 0 -6 0
10 -62784 -262144 -1 0.099939 256;
#X obj 246 234 nbx 3 14 -1e+037 1e+037 0 0 empty empty empty 0 -6 0
10 -62784 -262144 -1 0.099939 256;
#X obj 156 234 nbx 3 14 -1e+037 1e+037 0 0 empty empty empty 0 -6 0
10 -62784 -262144 -1 0.01 256;
#X obj 116 234 nbx 3 14 -1e+037 1e+037 0 0 empty empty empty 0 -6 0
10 -62784 -262144 -1 0.01 256;
#X obj 112 285 vradio 12 1 1 5 empty \$0-oscoctave-r OCT 0 -6 1 8 -262144
-1 -262144 2;
#X obj 74 339 - 2;
#X obj 100 101 cnv 15 300 30 empty empty PLUTO 20 12 1 18 -258699 -262144
0;
#X symbolatom 324 115 10 0 0 2 patchname #0-patchname -;
#N canvas 109 41 780 599 synth1 0;
#X obj -15 782 *~ 0.2;
#X obj -16 681 hip~ 60;
#N canvas 0 0 450 300 envelope 0;
#X obj 175 243 line;
#X msg 194 219 1 \$1;
#X msg 150 218 0 \$1;
#X obj 150 146 t b b;
#X obj 175 267 outlet;
#X obj 187 46 inlet attack;
#X obj 289 45 inlet decay;
#X obj 77 46 inlet trigger;
#X obj 187 87 t f f;
#X obj 150 196 f 50;
#X obj 194 197 f 50;
#X text 235 199 <-- default values 50 ms;
#X text 236 88 <-- set floats nicely;
#X obj 150 173 del 50;
#X text 151 9 envelope subpatch;
#X connect 0 0 4 0;
#X connect 1 0 0 0;
#X connect 2 0 0 0;
#X connect 3 0 13 0;
#X connect 3 1 10 0;
#X connect 5 0 8 0;
#X connect 6 0 9 1;
#X connect 7 0 3 0;
#X connect 8 0 13 1;
#X connect 8 1 10 1;
#X connect 9 0 2 0;
#X connect 10 0 1 0;
#X connect 13 0 9 0;
#X restore 13 283 pd envelope;
#X obj 13 413 * 3000;
#N canvas 0 0 450 300 fatoscillator 0;
#X obj 113 206 +~;
#X obj 61 165 -~ 0.5;
#X obj 147 164 -~ 0.5;
#X obj 60 8 inlet pitch;
#X obj 146 108 +;
#X obj 60 109 -;
#X obj 149 7 inlet fatness;
#X obj 149 31 * 5;
#X obj 112 238 outlet~;
#X obj 60 137 phasor~ 55;
#X obj 146 136 phasor~ 55;
#X obj 149 53 t b b f f;
#X connect 0 0 8 0;
#X connect 1 0 0 0;
#X connect 2 0 0 1;
#X connect 3 0 5 0;
#X connect 3 0 4 0;
#X connect 4 0 10 0;
#X connect 5 0 9 0;
#X connect 6 0 7 0;
#X connect 7 0 11 0;
#X connect 9 0 1 0;
#X connect 10 0 2 0;
#X connect 11 0 5 0;
#X connect 11 1 4 0;
#X connect 11 2 5 1;
#X connect 11 3 4 1;
#X restore -16 180 pd fatoscillator;
#X obj 23 526 t b f;
#X obj 21 389 t b f;
#X obj 13 550 + 20;
#N canvas 0 0 450 300 envelope 0;
#X obj 175 243 line;
#X msg 194 219 1 \$1;
#X msg 150 218 0 \$1;
#X obj 150 146 t b b;
#X obj 175 267 outlet;
#X obj 187 46 inlet attack;
#X obj 289 45 inlet decay;
#X obj 77 46 inlet trigger;
#X obj 187 87 t f f;
#X obj 150 196 f 50;
#X obj 194 197 f 50;
#X text 235 199 <-- default values 50 ms;
#X text 236 88 <-- set floats nicely;
#X obj 150 173 del 50;
#X text 151 9 envelope subpatch;
#X connect 0 0 4 0;
#X connect 1 0 0 0;
#X connect 2 0 0 0;
#X connect 3 0 13 0;
#X connect 3 1 10 0;
#X connect 5 0 8 0;
#X connect 6 0 9 1;
#X connect 7 0 3 0;
#X connect 8 0 13 1;
#X connect 8 1 10 1;
#X connect 9 0 2 0;
#X connect 10 0 1 0;
#X connect 13 0 9 0;
#X restore 1 722 pd envelope;
#X obj -15 745 *~;
#X obj 385 28 r \$0-oscf;
#X obj 384 53 r \$0-oscfat;
#X obj 384 78 r \$0-fenva;
#X obj 384 103 r \$0-fenvd;
#X obj 385 225 r \$0-aenva;
#X obj 385 264 r \$0-aenvd;
#X obj 388 303 r \$0-amp;
#X obj 384 195 r \$0-fres;
#X obj 384 132 r \$0-frng;
#X obj 384 167 r \$0-frle;
#X obj -16 812 outlet~;
#X obj 53 4 inlet;
#X obj 83 112 t b b;
#X obj 53 29 t f b;
#X obj -16 155 mtof;
#X obj -16 79 * 12;
#X obj -16 132 +;
#X obj -16 55 - 2;
#X obj -7 102 t b f;
#X obj 49 238 * 2000;
#X obj 123 213 * 2000;
#X obj 33 356 * 3000;
#X obj 23 503 * 3000;
#X obj 42 609 + 0.5;
#X obj 84 659 * 2000;
#X obj 73 700 * 2000;
#X text 173 201 <---- added multipliers;
#X text 164 241 <------------ and offsets;
#X text 68 304 <---- offset to stop clicks when;
#X text 110 321 filter is zero;
#X obj 49 262 + 10;
#X obj 123 240 + 10;
#X obj -15 655 moog~;
#X obj 5 630 sig~;
#X obj 38 630 sig~;
#X obj 42 589 * 3.1;
#X obj 13 308 + 0.1;
#X obj 13 437 +;
#X text 456 28 Octave;
#X text 457 52 Fatness;
#X text 456 78 filter attack;
#X text 454 103 filter decay;
#X text 455 133 filter amount;
#X text 450 195 filter resonance amount;
#X text 451 169 filter level?;
#X text 454 223 attack;
#X text 454 264 decay;
#X text 454 305 amplitude (volume);
#X connect 0 0 20 0;
#X connect 1 0 9 0;
#X connect 2 0 46 0;
#X connect 3 0 47 0;
#X connect 4 0 42 0;
#X connect 5 0 7 0;
#X connect 5 1 7 1;
#X connect 6 0 3 0;
#X connect 6 1 3 1;
#X connect 7 0 43 0;
#X connect 8 0 9 1;
#X connect 9 0 0 0;
#X connect 10 0 27 0;
#X connect 11 0 4 1;
#X connect 12 0 29 0;
#X connect 13 0 30 0;
#X connect 14 0 34 0;
#X connect 15 0 35 0;
#X connect 16 0 0 1;
#X connect 17 0 45 0;
#X connect 18 0 31 0;
#X connect 19 0 32 0;
#X connect 21 0 23 0;
#X connect 22 0 8 0;
#X connect 22 1 2 0;
#X connect 23 0 28 0;
#X connect 23 1 22 0;
#X connect 24 0 4 0;
#X connect 24 0 47 1;
#X connect 25 0 26 0;
#X connect 26 0 24 0;
#X connect 27 0 25 0;
#X connect 28 0 26 0;
#X connect 28 1 26 1;
#X connect 29 0 40 0;
#X connect 30 0 41 0;
#X connect 31 0 6 0;
#X connect 32 0 5 0;
#X connect 33 0 44 0;
#X connect 34 0 8 1;
#X connect 35 0 8 2;
#X connect 40 0 2 1;
#X connect 41 0 2 2;
#X connect 42 0 1 0;
#X connect 43 0 42 1;
#X connect 44 0 42 2;
#X connect 45 0 33 0;
#X connect 46 0 3 0;
#X connect 47 0 7 0;
#X restore 483 382 pd synth1;
#N canvas 0 0 460 548 control 0;
#X obj 39 204 s \$0-filterattack-r;
#X obj 39 224 s \$0-filterdecay-r;
#X obj 39 244 s \$0-filteramount-r;
#X obj 39 264 s \$0-filterlevel-r;
#X obj 39 284 s \$0-filterresonance-r;
#X obj 39 304 s \$0-oscoctave-r;
#X obj 39 324 s \$0-oscfatness-r;
#X obj 39 344 s \$0-ampattack-r;
#X obj 39 364 s \$0-ampdecay-r;
#X obj 39 384 s \$0-amplevel-r;
#X obj 39 55 route fak fdy fam flv fre ooc oft aak ady alv;
#X obj 39 7 r pluto;
#X obj 3 90 / 127;
#X obj 43 90 / 127;
#X obj 83 90 / 127;
#X obj 123 90 / 127;
#X obj 163 90 / 127;
#X obj 203 90 / 127;
#X obj 243 90 / 127;
#X obj 283 90 / 127;
#X obj 323 90 / 127;
#X obj 363 90 / 127;
#X obj 203 110 * 5;
#X obj 348 168 route name;
#X obj 348 218 s \$0-patchname;
#X obj 348 194 symbol;
#X connect 10 0 12 0;
#X connect 10 1 13 0;
#X connect 10 2 14 0;
#X connect 10 3 15 0;
#X connect 10 4 16 0;
#X connect 10 5 17 0;
#X connect 10 6 18 0;
#X connect 10 7 19 0;
#X connect 10 8 20 0;
#X connect 10 9 21 0;
#X connect 10 10 23 0;
#X connect 11 0 10 0;
#X connect 12 0 0 0;
#X connect 13 0 1 0;
#X connect 14 0 2 0;
#X connect 15 0 3 0;
#X connect 16 0 4 0;
#X connect 17 0 22 0;
#X connect 18 0 6 0;
#X connect 19 0 7 0;
#X connect 20 0 8 0;
#X connect 21 0 9 0;
#X connect 22 0 5 0;
#X connect 23 0 25 0;
#X connect 25 0 24 0;
#X restore 534 117 pd control interface;
#X obj 483 206 notein;
#X obj 566 208 ctlin;
#X obj 483 290 spigot;
#X obj 603 231 == 1;
#X obj 566 291 spigot;
#X obj 566 337 s \$0-filterlevel-r;
#X obj 566 315 / 127;
#X obj 526 229 == 1;
#X obj 501 229 > 0;
#X obj 501 259 &&;
#X obj 636 230 == 1;
#X obj 616 254 &&;
#X text 621 206 Mod wheel;
#X text 474 176 Fix channel to 1;
#N canvas 0 0 450 300 preset 0;
#X msg 12 89 \; pluto name brassy \, fak 10 \, fdy 50 \, fam 50 \,
flv 50 \, fre 20 \, ooc 60 \, oft 20 \, aak 10 \, ady 60 \, alv 20
;
#X msg 13 137 \; pluto name synbass \, fak 2 \, fdy 10 \, fam 40 \,
flv 10 \, fre 40 \, ooc 30 \, oft 1 \, aak 1 \, ady 4 \, alv 40;
#X msg 13 186 \; pluto name stringy \, fak 10 \, fdy 10 \, fam 20 \,
flv 15 \, fre 40 \, ooc 60 \, oft 2 \, aak 2.5 \, ady 5 \, alv 40;
#X obj 85 3 inlet;
#X obj 85 29 sel 1 2 3 4 5 6 7 8;
#X connect 3 0 4 0;
#X connect 4 0 0 0;
#X connect 4 1 1 0;
#X connect 4 2 2 0;
#X restore 706 375 pd preset patches;
#X obj 712 207 pgmin;
#X obj 742 236 == 1;
#X obj 705 261 spigot;
#X text 625 87 MIDI code;
#X obj 483 404 outlet~;
#X obj 493 314 b;
#X obj 493 358 s \$0-midilight;
#X obj 212 112 bng 15 60 50 0 empty \$0-midilight midi 0 -6 1 8 -258699
-262144 -1;
#X obj 283 116 hradio 12 1 0 3 \$0-patch-s \$0-patch-r patch 0 -8 1
9 -258699 -262144 -1 2;
#X obj 705 305 s \$0-patch-r;
#X obj 706 329 r \$0-patch-s;
#X obj 705 283 - 1;
#X obj 706 351 + 1;
#X obj 239 115 hradio 12 1 0 3 \$0-midichan-s empty chan 0 -6 1 8 -258699
-262144 -1 0;
#X obj 689 117 r \$0-midichan-s;
#X obj 689 163 t f f f;
#X obj 689 140 + 1;
#X obj 454 156 r \$0-demonotes;
#X connect 3 0 18 0;
#X connect 3 0 22 0;
#X connect 4 0 21 0;
#X connect 4 0 28 0;
#X connect 4 0 9 0;
#X connect 5 0 14 0;
#X connect 5 0 31 0;
#X connect 5 0 6 0;
#X connect 6 0 15 0;
#X connect 6 0 30 0;
#X connect 7 0 20 0;
#X connect 7 0 29 0;
#X connect 7 0 4 0;
#X connect 8 0 13 0;
#X connect 8 0 25 0;
#X connect 9 0 19 0;
#X connect 9 0 27 0;
#X connect 10 0 16 0;
#X connect 10 0 24 0;
#X connect 11 0 17 0;
#X connect 11 0 23 0;
#X connect 32 0 12 0;
#X connect 32 0 33 0;
#X connect 33 0 26 0;
#X connect 36 0 57 0;
#X connect 38 0 40 0;
#X connect 38 1 46 0;
#X connect 38 2 45 0;
#X connect 39 0 42 0;
#X connect 39 1 41 0;
#X connect 39 2 48 0;
#X connect 40 0 36 0;
#X connect 40 0 58 0;
#X connect 41 0 49 0;
#X connect 42 0 44 0;
#X connect 44 0 43 0;
#X connect 45 0 47 1;
#X connect 46 0 47 0;
#X connect 47 0 40 1;
#X connect 48 0 49 1;
#X connect 49 0 42 1;
#X connect 53 0 55 0;
#X connect 53 1 54 0;
#X connect 54 0 55 1;
#X connect 55 0 64 0;
#X connect 58 0 59 0;
#X connect 63 0 65 0;
#X connect 64 0 62 0;
#X connect 65 0 52 0;
#X connect 67 0 69 0;
#X connect 68 0 45 1;
#X connect 68 1 48 1;
#X connect 68 2 54 1;
#X connect 69 0 68 0;
#X connect 70 0 36 0;
#X coords 0 -1 1 1 300 270 1 100 100;
#X restore 361 31 pd interface;
#X obj 395 589 s \$0-filterattack-r;
#X obj 394 533 vsl 15 50 0.01 1 0 1 empty empty Filter_Attack/Decay
0 -9 0 10 -262144 -1 -1 0 1;
#X obj 256 539 vsl 15 50 0.01 1 0 1 empty empty Attack/Decay 0 -9 0
10 -262144 -1 -1 198 1;
#X obj 280 582 s \$0-ampattack-r;
#X obj 132 547 vsl 15 50 0.01 1 0 1 empty empty Osc_Fatness 0 -9 0
10 -262144 -1 -1 0 1;
#X obj 525 529 vsl 15 50 0.1 1 0 1 empty empty Filter_Amount 0 -9 0
10 -262144 -1 -1 0 1;
#X obj 525 589 s \$0-filteramount-r;
#X obj 132 607 s \$0-oscfatness-r;
#X obj 280 601 s \$0-ampdecay-r;
#X obj 394 608 s \$0-filtedecay-r;
#X obj 817 566 s \$0-amplevel-r;
#X obj 817 506 vsl 15 50 0.01 1 1 1 empty empty Note_volume 0 -9 0
10 -262144 -1 -1 3800 1;
#X obj 25 80 tgl 15 0 M_ON empty Sound_ON/OFF 17 7 0 10 -262144 -1
-1 1 1;
#X text 23 59 1) TURN ON SOUND;
#X obj 677 610 s \$0-demonotes;
#X obj 123 489 autoscale 0 1;
#X obj 677 581 +;
#X obj 629 554 metro 20;
#X obj 629 527 tgl 15 0 empty M_ON On/Off 0 -5 0 10 -262144 -1 -1 1
1;
#X obj 674 506 vsl 15 40 20 2000 0 1 empty empty Speed 0 -9 0 10 -262144
-1 -1 55 1;
#N canvas 810 204 450 300 other_stuff 0;
#X obj -4037 -55 key;
#X obj -4037 13 bng 15 250 50 0 empty empty empty 17 7 0 10 -262144
-1 -1;
#X obj -4009 13 bng 15 250 50 0 empty empty empty 17 7 0 10 -262144
-1 -1;
#X obj -3981 13 bng 15 250 50 0 empty empty empty 17 7 0 10 -262144
-1 -1;
#X obj -3953 13 bng 15 250 50 0 empty empty empty 17 7 0 10 -262144
-1 -1;
#X obj -3925 13 bng 15 250 50 0 empty empty empty 17 7 0 10 -262144
-1 -1;
#X obj -3896 13 bng 15 250 50 0 empty empty empty 17 7 0 10 -262144
-1 -1;
#X msg -4037 34 15;
#X msg -4009 34 18;
#X msg -3981 35 20;
#X msg -3953 35 22;
#X msg -3925 35 25;
#X obj -4033 -34 nbx 5 14 -1e+037 1e+037 0 0 empty empty empty 0 -8
0 10 -262144 -1 -1 0 256;
#X obj -4037 -17 route 97 115 100 102 103;
#X obj -4005 74 + 24;
#X obj -4033 217 s \$0-filteramount-r;
#X obj -4002 102 vsl 15 50 0 9600 0 0 empty empty empty 0 -9 0 10 -262144
-1 -1 0 1;
#X floatatom -4002 159 5 0 0 0 - - -;
#N canvas 0 0 450 300 envelope 0;
#X obj 175 243 line;
#X msg 194 219 1 \$1;
#X msg 150 218 0 \$1;
#X obj 150 146 t b b;
#X obj 175 267 outlet;
#X obj 187 46 inlet attack;
#X obj 289 45 inlet decay;
#X obj 77 46 inlet trigger;
#X obj 187 87 t f f;
#X obj 150 196 f 50;
#X obj 194 197 f 50;
#X text 235 199 <-- default values 50 ms;
#X text 236 88 <-- set floats nicely;
#X obj 150 173 del 50;
#X text 151 9 envelope subpatch;
#X connect 0 0 4 0;
#X connect 1 0 0 0;
#X connect 2 0 0 0;
#X connect 3 0 13 0;
#X connect 3 1 10 0;
#X connect 5 0 8 0;
#X connect 6 0 9 1;
#X connect 7 0 3 0;
#X connect 8 0 13 1;
#X connect 8 1 10 1;
#X connect 9 0 2 0;
#X connect 10 0 1 0;
#X connect 13 0 9 0;
#X restore -4033 183 pd envelope;
#X obj -4033 154 bng 15 250 50 0 empty empty empty 17 7 0 10 -262144
-1 -1;
#X obj -3971 202 nbx 5 14 -1e+037 1e+037 0 0 empty empty empty 0 -8
0 10 -262144 -1 -1 0 256;
#X text -3978 -36 "asdfg" keys play a minor pentatonic scale;
#X text -4009 -56 You can use this for keyboard control (not connected)
;
#X text -3984 96 bang this \, and the filter envelope will rise and
fall over the time specified by the slider;
#X connect 0 0 12 0;
#X connect 0 0 13 0;
#X connect 1 0 7 0;
#X connect 2 0 8 0;
#X connect 3 0 9 0;
#X connect 4 0 10 0;
#X connect 5 0 11 0;
#X connect 7 0 14 0;
#X connect 8 0 14 0;
#X connect 9 0 14 0;
#X connect 10 0 14 0;
#X connect 11 0 14 0;
#X connect 13 0 1 0;
#X connect 13 1 2 0;
#X connect 13 2 3 0;
#X connect 13 3 4 0;
#X connect 13 4 5 0;
#X connect 13 5 6 0;
#X connect 16 0 17 0;
#X connect 17 0 18 1;
#X connect 17 0 18 2;
#X connect 18 0 15 0;
#X connect 18 0 20 0;
#X connect 19 0 18 0;
#X restore 667 34 pd other_stuff;
#X msg 25 106 \; pd dsp \$1;
#X obj 515 312 udpreceive 5432;
#X obj 518 332 unpackOSC;
#X floatatom 437 414 5 0 0 0 - - -;
#X floatatom 495 412 5 0 0 0 - - -;
#X floatatom 555 411 5 0 0 0 - - -;
#X floatatom 733 411 5 0 0 0 - - -;
#X floatatom 674 410 5 0 0 0 - - -;
#X floatatom 614 410 5 0 0 0 - - -;
#X obj 667 56 import mrpeach;
#X obj 123 512 - 0.2;
#X text 870 488 comment;
#X text 21 154 2) Volume;
#X text 725 484 Pitch control;
#X text 14 364 emgAvg - squeeze a fist ->;
#X text 179 365 Detuning (oscillator fatness);
#X text 249 390 Filter stuff;
#X text 14 391 OrientationS - Yaw (left and right) ->;
#X text 14 412 accS - pitch for some reason (up and down) -> pitch
;
#X text -7 332 Motion to sound mappings: (from left to right of routeOSC)
;
#X obj 510 496 autoscale 1 0;
#X obj 379 496 autoscale 0 1;
#X floatatom 771 413 5 0 0 0 - - -;
#X obj 514 356 routeOSC /emgAvg /orientationS /acc /accS /gryo /orientation
/gryoS;
#X obj 816 390 routeOSC /gyroS;
#X floatatom 816 416 5 0 0 0 - - -;
#X obj 816 438 abs;
#X obj 816 464 autoscale 0 1;
#X obj 246 507 autoscale 0.05 1;
#X obj 174 161 cycle~ 440;
#X floatatom 175 99 5 0 0 0 - - -;
#X obj 721 503 autoscale 80 20;
#N canvas 762 138 450 300 autoscale_me 1;
#X msg 62 183 60;
#X msg 130 181 64;
#X msg 92 184 62;
#X msg 164 179 65;
#X msg 200 179 67;
#X msg 236 179 69;
#X msg 275 181 71;
#X msg 309 178 72;
#X obj 153 112 route 1 2 3 4 5 6 7 8;
#X obj 146 248 outlet;
#X obj 148 36 inlet;
#X obj 153 85 int;
#X obj 147 58 autoscale 10 0;
#X connect 0 0 9 0;
#X connect 1 0 9 0;
#X connect 2 0 9 0;
#X connect 3 0 9 0;
#X connect 4 0 9 0;
#X connect 5 0 9 0;
#X connect 6 0 9 0;
#X connect 7 0 9 0;
#X connect 8 0 0 0;
#X connect 8 1 2 0;
#X connect 8 2 1 0;
#X connect 8 3 3 0;
#X connect 8 4 4 0;
#X connect 8 5 5 0;
#X connect 8 6 6 0;
#X connect 8 7 7 0;
#X connect 10 0 12 0;
#X connect 11 0 8 0;
#X connect 12 0 11 0;
#X restore 766 301 pd autoscale_me;
#X connect 1 0 0 0;
#X connect 1 0 0 1;
#X connect 3 0 2 0;
#X connect 3 0 11 0;
#X connect 4 0 5 0;
#X connect 4 0 10 0;
#X connect 6 0 9 0;
#X connect 7 0 8 0;
#X connect 13 0 12 0;
#X connect 14 0 23 0;
#X connect 17 0 33 0;
#X connect 18 0 16 0;
#X connect 19 0 18 0;
#X connect 20 0 19 0;
#X connect 21 0 19 1;
#X connect 24 0 25 0;
#X connect 25 0 46 0;
#X connect 25 0 47 0;
#X connect 26 0 17 0;
#X connect 27 0 43 0;
#X connect 27 0 44 0;
#X connect 27 0 51 0;
#X connect 31 0 55 0;
#X connect 33 0 6 0;
#X connect 43 0 7 0;
#X connect 44 0 3 0;
#X connect 46 0 26 0;
#X connect 46 1 27 0;
#X connect 46 2 28 0;
#X connect 46 3 31 0;
#X connect 46 4 30 0;
#X connect 46 5 29 0;
#X connect 46 6 45 0;
#X connect 47 0 48 0;
#X connect 48 0 49 0;
#X connect 49 0 50 0;
#X connect 51 0 4 0;
#X connect 53 0 52 0;
#X connect 55 0 18 1;
