#N canvas 67 0 1368 700 10;
#X obj 40 -19 cnv 15 60 60 empty empty Q 8 12 0 14 -99865 -262144 0
;
#X obj 45 -13 cnv 22 50 50 empty empty 2 14 24 0 36 -1 -262144 0;
#X obj 102 -19 cnv 15 60 60 empty empty Q 8 12 0 14 -99865 -262144
0;
#X obj 107 -14 cnv 15 50 50 empty empty 3 14 24 0 36 -1 -262144 0;
#X obj 348 -19 cnv 15 60 60 empty empty 7 8 12 0 14 -99865 -262144
0;
#X obj 353 -14 cnv 15 50 50 empty empty 7 14 24 0 36 -1 -262144 0;
#X obj 224 -19 cnv 15 60 60 empty empty 5 8 12 0 14 -99865 -262144
0;
#X obj 229 -14 cnv 15 50 50 empty empty 5 14 24 0 36 -1 -262144 0;
#X obj 286 -19 cnv 15 60 60 empty empty Q 8 12 0 14 -99865 -262144
0;
#X obj 291 -14 cnv 15 50 50 empty empty 6 14 24 0 36 -1 -262144 0;
#X obj 7 43 cnv 10 60 60 empty c-60 Q 8 12 0 14 -99865 -99865 0;
#X obj 12 49 cnv 15 50 50 empty empty Q 14 24 0 36 -262144 -1 0;
#X obj 317 43 cnv 15 60 60 empty empty Q 8 12 0 14 -99865 -99865 0
;
#X obj 322 48 cnv 15 50 50 empty empty Y 14 24 0 36 -262144 -1 0;
#X obj 69 43 cnv 15 60 60 empty empty Q 8 12 0 14 -99865 -99865 0;
#X obj 74 48 cnv 15 50 50 empty empty W 14 24 0 36 -262144 -1 0;
#X obj 131 43 cnv 15 60 60 empty empty E 8 12 0 14 -99865 -99865 0
;
#X obj 136 48 cnv 15 50 50 empty empty E 14 24 0 36 -262144 -1 0;
#X obj 193 43 cnv 15 60 60 empty empty Q 8 12 0 14 -99865 -99865 0
;
#X obj 198 48 cnv 15 50 50 empty empty R 14 24 0 36 -262144 -1 0;
#X obj 255 43 cnv 15 60 60 empty empty Q 8 12 0 14 -99865 -99865 0
;
#X obj 260 48 cnv 15 50 50 empty empty T 14 24 0 36 -262144 -1 0;
#X obj 379 43 cnv 15 60 60 empty empty U 8 12 0 14 -99865 -99865 0
;
#X obj 384 48 cnv 15 50 50 empty empty U 14 24 0 36 -262144 -1 0;
#X obj 85 115 hradio 40 1 1 7 oct empty Octave 8 20 0 20 -99865 -262144
-191407 1;
#N canvas 441 349 450 454 octave 0;
#X obj 174 157 r oct;
#X obj 174 188 - 3;
#X obj 174 216 * 12;
#X obj 135 75 inlet;
#X obj 135 373 outlet;
#X obj 135 290 +;
#X obj 103 251 bang;
#X obj 135 112 unpack f f;
#X obj 135 333 pack f f;
#X connect 0 0 1 0;
#X connect 1 0 2 0;
#X connect 2 0 5 1;
#X connect 2 0 6 0;
#X connect 3 0 7 0;
#X connect 5 0 8 0;
#X connect 6 0 5 0;
#X connect 7 0 5 0;
#X connect 7 1 8 1;
#X connect 8 0 4 0;
#X restore 1040 150 pd octave;
#X obj 1040 173 unpack f f;
#X floatatom 1016 200 5 0 0 0 - - -;
#X floatatom 1116 200 5 0 0 0 - - -;
#X obj 8 128 keyname;
#X msg 8 218 symbol ke0;
#X obj 20 198 bang;
#X obj 8 156 pack f s;
#X obj 4 330 bng 10 250 50 0 empty empty empty 17 7 0 10 -262144 -1
-1;
#X obj 29 330 bng 10 250 50 0 empty empty empty 17 7 0 10 -262144 -1
-1;
#X obj 54 330 bng 10 250 50 0 empty empty empty 17 7 0 10 -262144 -1
-1;
#X obj 79 330 bng 10 250 50 0 empty empty empty 17 7 0 10 -262144 -1
-1;
#X obj 105 330 bng 10 250 50 0 empty empty empty 17 7 0 10 -262144
-1 -1;
#X obj 130 330 bng 10 250 50 0 empty empty empty 17 7 0 10 -262144
-1 -1;
#X obj 155 330 bng 10 250 50 0 empty empty empty 17 7 0 10 -262144
-1 -1;
#X obj 180 330 bng 10 250 50 0 empty empty empty 17 7 0 10 -262144
-1 -1;
#X obj 206 330 bng 10 250 50 0 empty empty empty 17 7 0 10 -262144
-1 -1;
#X obj 231 330 bng 10 250 50 0 empty empty empty 17 7 0 10 -262144
-1 -1;
#X obj 256 330 bng 10 250 50 0 empty empty empty 17 7 0 10 -262144
-1 -1;
#X msg 8 178 set symbol k\$2\$1;
#X obj 4 307 sel kq1 k21 kw1 k31 ke1 kr1 k51 kt1 k61 ky1 k71 ku1;
#X obj 281 330 bng 10 250 50 0 empty empty empty 17 7 0 10 -262144
-1 -1;
#X text 1010 217 note;
#X text 1113 218 velocity;
#N canvas 368 276 450 300 beep 0;
#X obj 93 137 square~;
#X obj 150 137 * 0.01;
#X obj 92 174 *~;
#X obj 93 42 unpack f f;
#X obj 93 71 mtof;
#X obj 93 203 outlet~;
#X obj 93 12 inlet;
#X connect 0 0 2 0;
#X connect 1 0 2 1;
#X connect 2 0 5 0;
#X connect 3 0 4 0;
#X connect 3 1 1 0;
#X connect 4 0 0 0;
#X connect 6 0 3 0;
#X restore 1039 354 pd beep;
#N canvas 294 330 450 300 beep 0;
#X obj 93 138 square~;
#X obj 150 137 * 0.01;
#X obj 92 174 *~;
#X obj 93 42 unpack f f;
#X obj 93 71 mtof;
#X obj 93 203 outlet~;
#X obj 93 12 inlet;
#X connect 0 0 2 0;
#X connect 1 0 2 1;
#X connect 2 0 5 0;
#X connect 3 0 4 0;
#X connect 3 1 1 0;
#X connect 4 0 0 0;
#X connect 6 0 3 0;
#X restore 1055 377 pd beep;
#N canvas 295 542 450 300 beep 0;
#X obj 93 138 square~;
#X obj 150 137 * 0.01;
#X obj 92 174 *~;
#X obj 93 42 unpack f f;
#X obj 93 71 mtof;
#X obj 93 203 outlet~;
#X obj 93 12 inlet;
#X connect 0 0 2 0;
#X connect 1 0 2 1;
#X connect 2 0 5 0;
#X connect 3 0 4 0;
#X connect 3 1 1 0;
#X connect 4 0 0 0;
#X connect 6 0 3 0;
#X restore 1073 399 pd beep;
#N canvas 295 542 450 300 beep 0;
#X obj 93 138 square~;
#X obj 150 137 * 0.01;
#X obj 92 174 *~;
#X obj 93 42 unpack f f;
#X obj 93 71 mtof;
#X obj 93 203 outlet~;
#X obj 93 12 inlet;
#X connect 0 0 2 0;
#X connect 1 0 2 1;
#X connect 2 0 5 0;
#X connect 3 0 4 0;
#X connect 3 1 1 0;
#X connect 4 0 0 0;
#X connect 6 0 3 0;
#X restore 1088 422 pd beep;
#N canvas 295 542 450 300 beep 0;
#X obj 93 138 square~;
#X obj 150 137 * 0.01;
#X obj 92 174 *~;
#X obj 93 42 unpack f f;
#X obj 93 71 mtof;
#X obj 93 203 outlet~;
#X obj 93 12 inlet;
#X connect 0 0 2 0;
#X connect 1 0 2 1;
#X connect 2 0 5 0;
#X connect 3 0 4 0;
#X connect 3 1 1 0;
#X connect 4 0 0 0;
#X connect 6 0 3 0;
#X restore 1105 445 pd beep;
#N canvas 297 544 450 300 beep 0;
#X obj 93 138 square~;
#X obj 150 137 * 0.01;
#X obj 92 174 *~;
#X obj 93 42 unpack f f;
#X obj 93 71 mtof;
#X obj 93 203 outlet~;
#X obj 93 12 inlet;
#X connect 0 0 2 0;
#X connect 1 0 2 1;
#X connect 2 0 5 0;
#X connect 3 0 4 0;
#X connect 3 1 1 0;
#X connect 4 0 0 0;
#X connect 6 0 3 0;
#X restore 1121 468 pd beep;
#X obj 1039 402 +~;
#X obj 1039 426 +~;
#X obj 1039 449 +~;
#X obj 1040 473 +~;
#X obj 1039 496 +~;
#X obj 1039 331 route 1 2 3 4 5 6;
#X obj 1039 303 pack f f f;
#X obj 1060 199 notein;
#X obj 989 235 s note;
#X obj 1163 233 s velo;
#X obj 1040 557 dac~;
#X obj 1040 526 *~ 0.1;
#X obj 4 354 f 60;
#X obj 29 374 f 61;
#X obj 54 393 f 62;
#X obj 79 413 f 63;
#X obj 105 431 f 64;
#X obj 130 451 f 65;
#X obj 155 470 f 66;
#X obj 180 491 f 67;
#X obj 206 510 f 68;
#X obj 231 530 f 69;
#X obj 256 549 f 70;
#X obj 281 569 f 71;
#X obj 538 318 bng 10 250 50 0 empty empty empty 17 7 0 10 -262144
-1 -1;
#X obj 563 318 bng 10 250 50 0 empty empty empty 17 7 0 10 -262144
-1 -1;
#X obj 588 318 bng 10 250 50 0 empty empty empty 17 7 0 10 -262144
-1 -1;
#X obj 613 318 bng 10 250 50 0 empty empty empty 17 7 0 10 -262144
-1 -1;
#X obj 639 318 bng 10 250 50 0 empty empty empty 17 7 0 10 -262144
-1 -1;
#X obj 664 318 bng 10 250 50 0 empty empty empty 17 7 0 10 -262144
-1 -1;
#X obj 689 318 bng 10 250 50 0 empty empty empty 17 7 0 10 -262144
-1 -1;
#X obj 714 318 bng 10 250 50 0 empty empty empty 17 7 0 10 -262144
-1 -1;
#X obj 740 318 bng 10 250 50 0 empty empty empty 17 7 0 10 -262144
-1 -1;
#X obj 765 318 bng 10 250 50 0 empty empty empty 17 7 0 10 -262144
-1 -1;
#X obj 790 318 bng 10 250 50 0 empty empty empty 17 7 0 10 -262144
-1 -1;
#X obj 815 318 bng 10 250 50 0 empty empty empty 17 7 0 10 -262144
-1 -1;
#X obj 538 340 f 60;
#X obj 563 360 f 61;
#X obj 588 379 f 62;
#X obj 613 399 f 63;
#X obj 639 417 f 64;
#X obj 664 437 f 65;
#X obj 689 456 f 66;
#X obj 714 477 f 67;
#X obj 740 496 f 68;
#X obj 765 516 f 69;
#X obj 790 535 f 70;
#X obj 815 555 f 71;
#X obj 538 572 pack f 0;
#X obj 401 670 send noteval;
#X obj 1040 112 receive noteval;
#X obj 866 331 bng 15 250 50 0 empty empty empty 17 7 0 10 -262144
-1 -1;
#X msg 1159 157 clear;
#X obj 1039 272 poly 6 1;
#N canvas 5 79 450 300 (subpatch) 0;
#X array array1 127 float 2;
#X coords 0 2 127 -1 400 140 1 0 0;
#X restore 497 12 graph;
#X obj 0 672 tabwrite array1;
#X obj 7 253 t s s;
#X obj 542 660 tabwrite array1;
#X obj 4 587 pack f 100;
#X msg 0 647 0 \$1;
#X msg 539 639 1 \$1;
#X obj 401 640 spigot;
#X floatatom 396 605 5 0 0 0 - - -;
#X floatatom 450 625 5 0 0 0 - - -;
#X obj 537 294 sel kq0 k20 kw0 k30 ke0 kr0 k50 kt0 k60 ky0 k70 ku0
;
#X obj 3 617 t l l l;
#X obj 537 600 t l l;
#X obj 434 606 tabread array1;
#X msg 495 188 \; array1 const 1;
#X obj 495 165 loadbang;
#X text 128 165 Key Repeats are the problem here \, so far the only
way I found to stop them is to to turn off key repeats in the system
keyboard settings. Not Ideal;
#X connect 25 0 26 0;
#X connect 26 0 27 0;
#X connect 26 1 28 0;
#X connect 27 0 63 0;
#X connect 27 0 108 0;
#X connect 28 0 64 0;
#X connect 28 0 108 1;
#X connect 29 0 32 0;
#X connect 29 1 32 1;
#X connect 30 0 111 0;
#X connect 31 0 30 0;
#X connect 32 0 44 0;
#X connect 33 0 67 0;
#X connect 34 0 68 0;
#X connect 35 0 69 0;
#X connect 36 0 70 0;
#X connect 37 0 71 0;
#X connect 38 0 72 0;
#X connect 39 0 73 0;
#X connect 40 0 74 0;
#X connect 41 0 75 0;
#X connect 42 0 76 0;
#X connect 43 0 77 0;
#X connect 44 0 30 0;
#X connect 44 0 31 0;
#X connect 45 0 33 0;
#X connect 45 1 34 0;
#X connect 45 2 35 0;
#X connect 45 3 36 0;
#X connect 45 4 37 0;
#X connect 45 5 38 0;
#X connect 45 6 39 0;
#X connect 45 7 40 0;
#X connect 45 8 41 0;
#X connect 45 9 42 0;
#X connect 45 10 43 0;
#X connect 45 11 46 0;
#X connect 46 0 78 0;
#X connect 49 0 55 0;
#X connect 50 0 55 1;
#X connect 51 0 56 1;
#X connect 52 0 57 1;
#X connect 53 0 58 1;
#X connect 54 0 59 1;
#X connect 55 0 56 0;
#X connect 56 0 57 0;
#X connect 57 0 58 0;
#X connect 58 0 59 0;
#X connect 59 0 66 0;
#X connect 60 0 49 0;
#X connect 60 1 50 0;
#X connect 60 2 51 0;
#X connect 60 3 52 0;
#X connect 60 4 53 0;
#X connect 60 5 54 0;
#X connect 61 0 60 0;
#X connect 62 0 63 0;
#X connect 62 0 27 0;
#X connect 62 1 64 0;
#X connect 62 1 28 0;
#X connect 66 0 65 0;
#X connect 66 0 65 1;
#X connect 67 0 113 0;
#X connect 68 0 113 0;
#X connect 69 0 113 0;
#X connect 70 0 113 0;
#X connect 71 0 113 0;
#X connect 72 0 113 0;
#X connect 73 0 113 0;
#X connect 74 0 113 0;
#X connect 75 0 113 0;
#X connect 76 0 113 0;
#X connect 77 0 113 0;
#X connect 78 0 113 0;
#X connect 79 0 91 0;
#X connect 80 0 92 0;
#X connect 81 0 93 0;
#X connect 82 0 94 0;
#X connect 83 0 95 0;
#X connect 84 0 96 0;
#X connect 85 0 97 0;
#X connect 86 0 98 0;
#X connect 87 0 99 0;
#X connect 88 0 100 0;
#X connect 89 0 101 0;
#X connect 90 0 102 0;
#X connect 91 0 103 0;
#X connect 92 0 103 0;
#X connect 93 0 103 0;
#X connect 94 0 103 0;
#X connect 95 0 103 0;
#X connect 96 0 103 0;
#X connect 97 0 103 0;
#X connect 98 0 103 0;
#X connect 99 0 103 0;
#X connect 100 0 103 0;
#X connect 101 0 103 0;
#X connect 102 0 103 0;
#X connect 103 0 121 0;
#X connect 105 0 25 0;
#X connect 106 0 79 0;
#X connect 106 0 80 0;
#X connect 106 0 81 0;
#X connect 106 0 82 0;
#X connect 106 0 83 0;
#X connect 106 0 84 0;
#X connect 106 0 85 0;
#X connect 106 0 86 0;
#X connect 106 0 87 0;
#X connect 106 0 88 0;
#X connect 106 0 89 0;
#X connect 106 0 90 0;
#X connect 107 0 108 0;
#X connect 108 0 61 0;
#X connect 108 1 61 1;
#X connect 108 2 61 2;
#X connect 111 0 119 0;
#X connect 111 1 45 0;
#X connect 113 0 120 0;
#X connect 114 0 110 0;
#X connect 115 0 112 0;
#X connect 116 0 104 0;
#X connect 117 0 122 0;
#X connect 119 0 79 0;
#X connect 119 1 80 0;
#X connect 119 2 81 0;
#X connect 119 3 82 0;
#X connect 119 4 83 0;
#X connect 119 5 84 0;
#X connect 119 6 85 0;
#X connect 119 7 86 0;
#X connect 119 8 87 0;
#X connect 119 9 88 0;
#X connect 119 10 89 0;
#X connect 119 11 90 0;
#X connect 120 0 114 0;
#X connect 120 1 116 0;
#X connect 120 2 117 0;
#X connect 121 0 115 0;
#X connect 121 1 104 0;
#X connect 122 0 116 1;
#X connect 122 0 118 0;
#X connect 124 0 123 0;
#X coords 0 700 1 699 85 60 0;
