#N canvas 63 19 536 670 10;
#X obj 280 134 vsl 20 60 0 1 0 1 vlume vlume Volume 0 -9 0 10 -262144
-1 -1 4000 1;
#X obj 182 132 bng 40 250 50 0 medium medium 100% 0 -5 0 10 -4034 -1
-1;
#X obj 138 130 bng 40 250 50 0 slow slow 75% 0 -5 0 10 -4160 -1 -1
;
#X obj 227 131 bng 40 250 50 0 fast fast 125% 0 -5 0 10 -258113 -1
-1;
#N canvas 727 38 450 595 mainstuffs 0;
#X obj 11 96 soundfiler;
#X floatatom 24 119 12 0 0 0 - - -;
#X obj 11 160 expr 44100 / $f1;
#X obj 24 140 s sampleSize;
#X floatatom 22 183 12 0 0 0 - - -;
#X obj 14 422 dac~;
#X obj 12 282 phasor~;
#X obj 12 332 *~;
#X obj 27 309 r sampleSize;
#X obj 13 398 *~;
#X obj 12 360 tabread4~ Song;
#N canvas 238 88 810 503 maths 0;
#X msg 354 150 0.75;
#X msg 384 149 1.25;
#X obj 335 262 *;
#X obj 335 229 t b f;
#X msg 322 151 1;
#X obj 335 197 line;
#X msg 354 173 \$1 5000;
#X floatatom 403 233 5 0 0 0 - - -;
#X obj 322 173 \$1 1;
#X obj 335 347 outlet;
#X obj 322 82 inlet;
#X obj 362 82 inlet;
#X obj 402 82 inlet;
#X obj 403 348 outlet;
#X obj 225 83 inlet;
#X text 408 172 line object recieves target speed \, and time to reach
speed;
#X obj 286 53 loadbang;
#X text 198 66 Samplelength;
#X text 321 67 normal slow \, fast;
#X obj 465 79 r slow;
#X obj 516 82 r normal;
#X obj 588 84 r fast;
#X connect 0 0 6 0;
#X connect 1 0 6 0;
#X connect 2 0 9 0;
#X connect 3 0 2 0;
#X connect 3 1 2 1;
#X connect 4 0 8 0;
#X connect 5 0 3 0;
#X connect 5 0 7 0;
#X connect 6 0 5 0;
#X connect 7 0 13 0;
#X connect 8 0 5 0;
#X connect 10 0 4 0;
#X connect 11 0 0 0;
#X connect 12 0 1 0;
#X connect 14 0 2 0;
#X connect 16 0 4 0;
#X connect 19 0 0 0;
#X connect 20 0 4 0;
#X connect 21 0 1 0;
#X restore 39 239 pd maths;
#X floatatom 84 267 5 0 0 1 Current_speed - -;
#X obj 12 210 t f f;
#X obj 132 363 r vlume;
#X obj 212 58 loadbang;
#X obj 212 83 tgl 15 0 empty on/off empty 17 7 0 10 -262144 -1 -1 0
1;
#X msg 212 118 \; pd dsp \$1;
#X obj 210 29 table Song;
#X obj 12 47 openpanel;
#X msg 12 69 read -resize \$1 Song;
#X obj 12 21 inlet;
#X connect 0 0 1 0;
#X connect 0 0 2 0;
#X connect 1 0 3 0;
#X connect 2 0 4 0;
#X connect 2 0 13 0;
#X connect 6 0 7 0;
#X connect 7 0 10 0;
#X connect 8 0 7 1;
#X connect 9 0 5 0;
#X connect 9 0 5 1;
#X connect 10 0 9 0;
#X connect 11 0 6 0;
#X connect 11 1 12 0;
#X connect 13 0 6 0;
#X connect 13 1 11 0;
#X connect 14 0 9 1;
#X connect 15 0 16 0;
#X connect 16 0 17 0;
#X connect 19 0 20 0;
#X connect 20 0 0 0;
#X connect 21 0 19 0;
#X restore 139 208 pd mainstuffs;
#X obj 281 203 tgl 15 0 on/off empty on/off 17 7 0 10 -262144 -1 -1
0 1;
#X obj 139 178 bng 15 250 50 0 empty empty Open_and_find_a_song 17
7 0 10 -262144 -1 -1;
#X connect 6 0 4 0;
